<?xml version="1.0" encoding="UTF-8" standalone="no"?>
<svg
   xmlns:dc="http://purl.org/dc/elements/1.1/"
   xmlns:cc="http://creativecommons.org/ns#"
   xmlns:rdf="http://www.w3.org/1999/02/22-rdf-syntax-ns#"
   xmlns:svg="http://www.w3.org/2000/svg"
   xmlns="http://www.w3.org/2000/svg"
   xmlns:sodipodi="http://sodipodi.sourceforge.net/DTD/sodipodi-0.dtd"
   xmlns:inkscape="http://www.inkscape.org/namespaces/inkscape"
   sodipodi:docname="ESBdcpermex.svg"
   inkscape:version="1.0.1 (3bc2e813f5, 2020-09-07)"
   version="1.1"
   id="svg2"
   xml:space="preserve"
   width="287.30658"
   height="136.20312"
   viewBox="0 0 287.30658 136.20313"><sodipodi:namedview
     pagecolor="#ffffff"
     bordercolor="#666666"
     borderopacity="1"
     objecttolerance="10"
     gridtolerance="10"
     guidetolerance="10"
     inkscape:pageopacity="0"
     inkscape:pageshadow="2"
     inkscape:window-width="1920"
     inkscape:window-height="1017"
     id="namedview716"
     showgrid="true"
     inkscape:zoom="2.8953006"
     inkscape:cx="104.71135"
     inkscape:cy="24.657267"
     inkscape:window-x="-8"
     inkscape:window-y="-8"
     inkscape:window-maximized="1"
     inkscape:current-layer="g1430"
     fit-margin-top="0"
     fit-margin-left="0"
     fit-margin-right="0"
     fit-margin-bottom="0"
     inkscape:document-rotation="0" /><metadata
     id="metadata8"><rdf:RDF><cc:Work
         rdf:about=""><dc:format>image/svg+xml</dc:format><dc:type
           rdf:resource="http://purl.org/dc/dcmitype/StillImage" /><dc:title /></cc:Work></rdf:RDF></metadata><defs
     id="defs6"><clipPath
       id="clipPath22"
       clipPathUnits="userSpaceOnUse"><path
         id="path20"
         d="m 0,0 422.405,0 0,113.416 -422.405,0 z"
         inkscape:connector-curvature="0" /></clipPath><clipPath
       id="clipPath30"
       clipPathUnits="userSpaceOnUse"><path
         id="path28"
         d="m 0,0 595.32,0 0,841.92 -595.32,0 z"
         inkscape:connector-curvature="0" /></clipPath><clipPath
       id="clipPath34"
       clipPathUnits="userSpaceOnUse"><path
         style="clip-rule:evenodd"
         id="path32"
         d="m 0.00125,-0.12134 595.44,0 0,842.04 -595.44,0 z"
         inkscape:connector-curvature="0" /></clipPath><clipPath
       id="clipPath38"
       clipPathUnits="userSpaceOnUse"><path
         id="path36"
         d="m 0,0 131.54,0 0,34.441 -131.54,0 z"
         inkscape:connector-curvature="0" /></clipPath><clipPath
       id="clipPath42"
       clipPathUnits="userSpaceOnUse"><path
         style="clip-rule:evenodd"
         id="path40"
         d="m 65.544,737.86 418.39,0 0,33.135 -418.39,0 z"
         inkscape:connector-curvature="0" /></clipPath><clipPath
       id="clipPath46"
       clipPathUnits="userSpaceOnUse"><path
         style="clip-rule:evenodd"
         id="path44"
         d="m 483.93,737.85 48.72,0 0,33.15 -48.72,0 z"
         inkscape:connector-curvature="0" /></clipPath><clipPath
       id="clipPath50"
       clipPathUnits="userSpaceOnUse"><path
         style="clip-rule:evenodd"
         id="path48"
         d="m 483.94,737.86 48.72,0 0,33.144 -48.72,0 z"
         inkscape:connector-curvature="0" /></clipPath><clipPath
       id="clipPath54"
       clipPathUnits="userSpaceOnUse"><path
         style="clip-rule:evenodd"
         id="path52"
         d="m 483.94,737.86 48.72,0 0,33.144 -48.72,0 z"
         inkscape:connector-curvature="0" /></clipPath><clipPath
       id="clipPath58"
       clipPathUnits="userSpaceOnUse"><path
         style="clip-rule:evenodd"
         id="path56"
         d="m 483.94,737.86 48.72,0 0,33.144 -48.72,0 z"
         inkscape:connector-curvature="0" /></clipPath><clipPath
       id="clipPath62"
       clipPathUnits="userSpaceOnUse"><path
         style="clip-rule:evenodd"
         id="path60"
         d="m 483.94,737.86 48.72,0 0,33.144 -48.72,0 z"
         inkscape:connector-curvature="0" /></clipPath><clipPath
       id="clipPath66"
       clipPathUnits="userSpaceOnUse"><path
         style="clip-rule:evenodd"
         id="path64"
         d="m 483.94,737.86 48.72,0 0,33.144 -48.72,0 z"
         inkscape:connector-curvature="0" /></clipPath><clipPath
       id="clipPath70"
       clipPathUnits="userSpaceOnUse"><path
         style="clip-rule:evenodd"
         id="path68"
         d="m 483.94,737.86 48.72,0 0,33.144 -48.72,0 z"
         inkscape:connector-curvature="0" /></clipPath><clipPath
       id="clipPath74"
       clipPathUnits="userSpaceOnUse"><path
         id="path72"
         d="m 0,0 48.945,0 0,17.603 -48.945,0 z"
         inkscape:connector-curvature="0" /></clipPath><clipPath
       id="clipPath78"
       clipPathUnits="userSpaceOnUse"><path
         style="clip-rule:evenodd"
         id="path76"
         d="m 65.544,692.62 418.39,0 0,17.634 -418.39,0 z"
         inkscape:connector-curvature="0" /></clipPath><clipPath
       id="clipPath82"
       clipPathUnits="userSpaceOnUse"><path
         style="clip-rule:evenodd"
         id="path80"
         d="m 483.93,692.61 48.72,0 0,17.64 -48.72,0 z"
         inkscape:connector-curvature="0" /></clipPath><clipPath
       id="clipPath86"
       clipPathUnits="userSpaceOnUse"><path
         style="clip-rule:evenodd"
         id="path84"
         d="m 483.94,692.62 48.72,0 0,17.64 -48.72,0 z"
         inkscape:connector-curvature="0" /></clipPath><clipPath
       id="clipPath90"
       clipPathUnits="userSpaceOnUse"><path
         style="clip-rule:evenodd"
         id="path88"
         d="m 483.94,692.62 48.72,0 0,17.64 -48.72,0 z"
         inkscape:connector-curvature="0" /></clipPath><clipPath
       id="clipPath94"
       clipPathUnits="userSpaceOnUse"><path
         style="clip-rule:evenodd"
         id="path92"
         d="m 483.94,692.62 48.72,0 0,17.64 -48.72,0 z"
         inkscape:connector-curvature="0" /></clipPath><clipPath
       id="clipPath98"
       clipPathUnits="userSpaceOnUse"><path
         style="clip-rule:evenodd"
         id="path96"
         d="m 483.94,692.62 48.72,0 0,17.64 -48.72,0 z"
         inkscape:connector-curvature="0" /></clipPath><clipPath
       id="clipPath102"
       clipPathUnits="userSpaceOnUse"><path
         style="clip-rule:evenodd"
         id="path100"
         d="m 483.94,692.62 48.72,0 0,17.64 -48.72,0 z"
         inkscape:connector-curvature="0" /></clipPath><clipPath
       id="clipPath106"
       clipPathUnits="userSpaceOnUse"><path
         style="clip-rule:evenodd"
         id="path104"
         d="m 483.94,692.62 48.72,0 0,17.64 -48.72,0 z"
         inkscape:connector-curvature="0" /></clipPath><clipPath
       id="clipPath110"
       clipPathUnits="userSpaceOnUse"><path
         id="path108"
         d="m 0,0 55.063,0 0,17.603 -55.063,0 z"
         inkscape:connector-curvature="0" /></clipPath><clipPath
       id="clipPath114"
       clipPathUnits="userSpaceOnUse"><path
         style="clip-rule:evenodd"
         id="path112"
         d="m 65.544,661.3 418.39,0 0,17.514 -418.39,0 z"
         inkscape:connector-curvature="0" /></clipPath><clipPath
       id="clipPath118"
       clipPathUnits="userSpaceOnUse"><path
         style="clip-rule:evenodd"
         id="path116"
         d="m 483.93,661.29 48.72,0 0,17.52 -48.72,0 z"
         inkscape:connector-curvature="0" /></clipPath><clipPath
       id="clipPath122"
       clipPathUnits="userSpaceOnUse"><path
         style="clip-rule:evenodd"
         id="path120"
         d="m 483.94,661.3 48.72,0 0,17.52 -48.72,0 z"
         inkscape:connector-curvature="0" /></clipPath><clipPath
       id="clipPath126"
       clipPathUnits="userSpaceOnUse"><path
         style="clip-rule:evenodd"
         id="path124"
         d="m 483.94,661.3 48.72,0 0,17.52 -48.72,0 z"
         inkscape:connector-curvature="0" /></clipPath><clipPath
       id="clipPath130"
       clipPathUnits="userSpaceOnUse"><path
         style="clip-rule:evenodd"
         id="path128"
         d="m 483.94,661.3 48.72,0 0,17.52 -48.72,0 z"
         inkscape:connector-curvature="0" /></clipPath><clipPath
       id="clipPath134"
       clipPathUnits="userSpaceOnUse"><path
         style="clip-rule:evenodd"
         id="path132"
         d="m 483.94,661.3 48.72,0 0,17.52 -48.72,0 z"
         inkscape:connector-curvature="0" /></clipPath><clipPath
       id="clipPath138"
       clipPathUnits="userSpaceOnUse"><path
         style="clip-rule:evenodd"
         id="path136"
         d="m 483.94,661.3 48.72,0 0,17.52 -48.72,0 z"
         inkscape:connector-curvature="0" /></clipPath><clipPath
       id="clipPath142"
       clipPathUnits="userSpaceOnUse"><path
         style="clip-rule:evenodd"
         id="path140"
         d="m 483.94,661.3 48.72,0 0,17.52 -48.72,0 z"
         inkscape:connector-curvature="0" /></clipPath><clipPath
       id="clipPath146"
       clipPathUnits="userSpaceOnUse"><path
         id="path144"
         d="m 0,0 153.72,0 0,19.134 -153.72,0 z"
         inkscape:connector-curvature="0" /></clipPath><clipPath
       id="clipPath150"
       clipPathUnits="userSpaceOnUse"><path
         style="clip-rule:evenodd"
         id="path148"
         d="m 65.544,628.78 418.39,0 0,18.714 -418.39,0 z"
         inkscape:connector-curvature="0" /></clipPath><clipPath
       id="clipPath154"
       clipPathUnits="userSpaceOnUse"><path
         style="clip-rule:evenodd"
         id="path152"
         d="m 483.93,628.77 48.72,0 0,18.72 -48.72,0 z"
         inkscape:connector-curvature="0" /></clipPath><clipPath
       id="clipPath158"
       clipPathUnits="userSpaceOnUse"><path
         style="clip-rule:evenodd"
         id="path156"
         d="m 483.94,628.78 48.72,0 0,18.72 -48.72,0 z"
         inkscape:connector-curvature="0" /></clipPath><clipPath
       id="clipPath162"
       clipPathUnits="userSpaceOnUse"><path
         style="clip-rule:evenodd"
         id="path160"
         d="m 483.94,628.78 48.72,0 0,18.72 -48.72,0 z"
         inkscape:connector-curvature="0" /></clipPath><clipPath
       id="clipPath166"
       clipPathUnits="userSpaceOnUse"><path
         style="clip-rule:evenodd"
         id="path164"
         d="m 483.94,628.78 48.72,0 0,18.72 -48.72,0 z"
         inkscape:connector-curvature="0" /></clipPath><clipPath
       id="clipPath170"
       clipPathUnits="userSpaceOnUse"><path
         style="clip-rule:evenodd"
         id="path168"
         d="m 483.94,628.78 48.72,0 0,18.72 -48.72,0 z"
         inkscape:connector-curvature="0" /></clipPath><clipPath
       id="clipPath174"
       clipPathUnits="userSpaceOnUse"><path
         style="clip-rule:evenodd"
         id="path172"
         d="m 483.94,628.78 48.72,0 0,18.72 -48.72,0 z"
         inkscape:connector-curvature="0" /></clipPath><clipPath
       id="clipPath178"
       clipPathUnits="userSpaceOnUse"><path
         style="clip-rule:evenodd"
         id="path176"
         d="m 483.94,628.78 48.72,0 0,18.72 -48.72,0 z"
         inkscape:connector-curvature="0" /></clipPath><clipPath
       id="clipPath182"
       clipPathUnits="userSpaceOnUse"><path
         id="path180"
         d="m 0,0 88.713,0 0,19.134 -88.713,0 z"
         inkscape:connector-curvature="0" /></clipPath><clipPath
       id="clipPath186"
       clipPathUnits="userSpaceOnUse"><path
         style="clip-rule:evenodd"
         id="path184"
         d="m 65.544,596.11 418.39,0 0,18.864 -418.39,0 z"
         inkscape:connector-curvature="0" /></clipPath><clipPath
       id="clipPath190"
       clipPathUnits="userSpaceOnUse"><path
         style="clip-rule:evenodd"
         id="path188"
         d="m 483.93,596.11 48.72,0 0,18.855 -48.72,0 z"
         inkscape:connector-curvature="0" /></clipPath><clipPath
       id="clipPath194"
       clipPathUnits="userSpaceOnUse"><path
         style="clip-rule:evenodd"
         id="path192"
         d="m 483.94,596.11 48.72,0 0,18.864 -48.72,0 z"
         inkscape:connector-curvature="0" /></clipPath><clipPath
       id="clipPath198"
       clipPathUnits="userSpaceOnUse"><path
         style="clip-rule:evenodd"
         id="path196"
         d="m 483.94,596.11 48.72,0 0,18.864 -48.72,0 z"
         inkscape:connector-curvature="0" /></clipPath><clipPath
       id="clipPath202"
       clipPathUnits="userSpaceOnUse"><path
         style="clip-rule:evenodd"
         id="path200"
         d="m 483.94,596.11 48.72,0 0,18.864 -48.72,0 z"
         inkscape:connector-curvature="0" /></clipPath><clipPath
       id="clipPath206"
       clipPathUnits="userSpaceOnUse"><path
         style="clip-rule:evenodd"
         id="path204"
         d="m 483.94,596.11 48.72,0 0,18.864 -48.72,0 z"
         inkscape:connector-curvature="0" /></clipPath><clipPath
       id="clipPath210"
       clipPathUnits="userSpaceOnUse"><path
         style="clip-rule:evenodd"
         id="path208"
         d="m 483.94,596.11 48.72,0 0,18.864 -48.72,0 z"
         inkscape:connector-curvature="0" /></clipPath><clipPath
       id="clipPath214"
       clipPathUnits="userSpaceOnUse"><path
         style="clip-rule:evenodd"
         id="path212"
         d="m 483.94,596.11 48.72,0 0,18.864 -48.72,0 z"
         inkscape:connector-curvature="0" /></clipPath><clipPath
       id="clipPath218"
       clipPathUnits="userSpaceOnUse"><path
         id="path216"
         d="m 0,0 44.356,0 0,34.441 -44.356,0 z"
         inkscape:connector-curvature="0" /></clipPath><clipPath
       id="clipPath222"
       clipPathUnits="userSpaceOnUse"><path
         style="clip-rule:evenodd"
         id="path220"
         d="m 65.544,287.69 418.39,0 0,33.114 -418.39,0 z"
         inkscape:connector-curvature="0" /></clipPath><clipPath
       id="clipPath226"
       clipPathUnits="userSpaceOnUse"><path
         style="clip-rule:evenodd"
         id="path224"
         d="m 483.93,287.68 48.72,0 0,33.12 -48.72,0 z"
         inkscape:connector-curvature="0" /></clipPath><clipPath
       id="clipPath230"
       clipPathUnits="userSpaceOnUse"><path
         style="clip-rule:evenodd"
         id="path228"
         d="m 483.94,287.69 48.72,0 0,33.12 -48.72,0 z"
         inkscape:connector-curvature="0" /></clipPath><clipPath
       id="clipPath234"
       clipPathUnits="userSpaceOnUse"><path
         style="clip-rule:evenodd"
         id="path232"
         d="m 483.94,287.69 48.72,0 0,33.12 -48.72,0 z"
         inkscape:connector-curvature="0" /></clipPath><clipPath
       id="clipPath238"
       clipPathUnits="userSpaceOnUse"><path
         style="clip-rule:evenodd"
         id="path236"
         d="m 483.94,287.69 48.72,0 0,33.12 -48.72,0 z"
         inkscape:connector-curvature="0" /></clipPath><clipPath
       id="clipPath242"
       clipPathUnits="userSpaceOnUse"><path
         style="clip-rule:evenodd"
         id="path240"
         d="m 483.94,287.69 48.72,0 0,33.12 -48.72,0 z"
         inkscape:connector-curvature="0" /></clipPath><clipPath
       id="clipPath246"
       clipPathUnits="userSpaceOnUse"><path
         style="clip-rule:evenodd"
         id="path244"
         d="m 483.94,287.69 48.72,0 0,33.12 -48.72,0 z"
         inkscape:connector-curvature="0" /></clipPath><clipPath
       id="clipPath250"
       clipPathUnits="userSpaceOnUse"><path
         style="clip-rule:evenodd"
         id="path248"
         d="m 483.94,287.69 48.72,0 0,33.12 -48.72,0 z"
         inkscape:connector-curvature="0" /></clipPath><clipPath
       id="clipPath254"
       clipPathUnits="userSpaceOnUse"><path
         id="path252"
         d="m 0,0 44.356,0 0,34.441 -44.356,0 z"
         inkscape:connector-curvature="0" /></clipPath><clipPath
       id="clipPath258"
       clipPathUnits="userSpaceOnUse"><path
         style="clip-rule:evenodd"
         id="path256"
         d="m 65.544,213.03 418.39,0 0,33.237 -418.39,0 z"
         inkscape:connector-curvature="0" /></clipPath><clipPath
       id="clipPath262"
       clipPathUnits="userSpaceOnUse"><path
         style="clip-rule:evenodd"
         id="path260"
         d="m 483.93,213.03 48.72,0 0,33.24 -48.72,0 z"
         inkscape:connector-curvature="0" /></clipPath><clipPath
       id="clipPath266"
       clipPathUnits="userSpaceOnUse"><path
         style="clip-rule:evenodd"
         id="path264"
         d="m 483.94,213.02 48.72,0 0,33.24 -48.72,0 z"
         inkscape:connector-curvature="0" /></clipPath><clipPath
       id="clipPath270"
       clipPathUnits="userSpaceOnUse"><path
         style="clip-rule:evenodd"
         id="path268"
         d="m 483.94,213.02 48.72,0 0,33.24 -48.72,0 z"
         inkscape:connector-curvature="0" /></clipPath><clipPath
       id="clipPath274"
       clipPathUnits="userSpaceOnUse"><path
         style="clip-rule:evenodd"
         id="path272"
         d="m 483.94,213.02 48.72,0 0,33.24 -48.72,0 z"
         inkscape:connector-curvature="0" /></clipPath><clipPath
       id="clipPath278"
       clipPathUnits="userSpaceOnUse"><path
         style="clip-rule:evenodd"
         id="path276"
         d="m 483.94,213.02 48.72,0 0,33.24 -48.72,0 z"
         inkscape:connector-curvature="0" /></clipPath><clipPath
       id="clipPath282"
       clipPathUnits="userSpaceOnUse"><path
         style="clip-rule:evenodd"
         id="path280"
         d="m 483.94,213.02 48.72,0 0,33.24 -48.72,0 z"
         inkscape:connector-curvature="0" /></clipPath><clipPath
       id="clipPath286"
       clipPathUnits="userSpaceOnUse"><path
         style="clip-rule:evenodd"
         id="path284"
         d="m 483.94,213.02 48.72,0 0,33.24 -48.72,0 z"
         inkscape:connector-curvature="0" /></clipPath><clipPath
       id="clipPath290"
       clipPathUnits="userSpaceOnUse"><path
         id="path288"
         d="m 0,0 49.71,0 0,18.369 -49.71,0 z"
         inkscape:connector-curvature="0" /></clipPath><clipPath
       id="clipPath294"
       clipPathUnits="userSpaceOnUse"><path
         id="path292"
         d="m 0,0 13.001,0 0,17.603 -13.001,0 z"
         inkscape:connector-curvature="0" /></clipPath><clipPath
       id="clipPath298"
       clipPathUnits="userSpaceOnUse"><path
         id="path296"
         d="m 0,0 16.06,0 0,17.603 -16.06,0 z"
         inkscape:connector-curvature="0" /></clipPath><clipPath
       id="clipPath302"
       clipPathUnits="userSpaceOnUse"><path
         style="clip-rule:evenodd"
         id="path300"
         d="m 0,841.92 1e-5,0 0,1e-5 -1e-5,0 z"
         inkscape:connector-curvature="0" /></clipPath><clipPath
       id="clipPath306"
       clipPathUnits="userSpaceOnUse"><path
         style="clip-rule:evenodd"
         id="path304"
         d="m 0,841.92 1e-5,0 0,1e-5 -1e-5,0 z"
         inkscape:connector-curvature="0" /></clipPath><clipPath
       id="clipPath310"
       clipPathUnits="userSpaceOnUse"><path
         id="path308"
         d="m 0,0 16.825,0 0,17.603 -16.825,0 z"
         inkscape:connector-curvature="0" /></clipPath><clipPath
       id="clipPath314"
       clipPathUnits="userSpaceOnUse"><path
         id="path312"
         d="m 0,0 17.59,0 0,17.603 -17.59,0 z"
         inkscape:connector-curvature="0" /></clipPath><clipPath
       id="clipPath318"
       clipPathUnits="userSpaceOnUse"><path
         id="path316"
         d="m 0,0 13.001,0 0,17.603 -13.001,0 z"
         inkscape:connector-curvature="0" /></clipPath><clipPath
       id="clipPath322"
       clipPathUnits="userSpaceOnUse"><path
         id="path320"
         d="m 0,0 16.06,0 0,17.603 -16.06,0 z"
         inkscape:connector-curvature="0" /></clipPath><clipPath
       id="clipPath326"
       clipPathUnits="userSpaceOnUse"><path
         style="clip-rule:evenodd"
         id="path324"
         d="m 0,841.92 1e-5,0 0,1e-5 -1e-5,0 z"
         inkscape:connector-curvature="0" /></clipPath><clipPath
       id="clipPath330"
       clipPathUnits="userSpaceOnUse"><path
         style="clip-rule:evenodd"
         id="path328"
         d="m 0,841.92 1e-5,0 0,1e-5 -1e-5,0 z"
         inkscape:connector-curvature="0" /></clipPath><clipPath
       id="clipPath334"
       clipPathUnits="userSpaceOnUse"><path
         id="path332"
         d="m 0,0 16.825,0 0,17.603 -16.825,0 z"
         inkscape:connector-curvature="0" /></clipPath><clipPath
       id="clipPath338"
       clipPathUnits="userSpaceOnUse"><path
         id="path336"
         d="m 0,0 17.59,0 0,17.603 -17.59,0 z"
         inkscape:connector-curvature="0" /></clipPath></defs><g
     transform="matrix(1.3333333,0,0,-1.3333333,-6.2548633,140.02763)"
     id="g10"><g
       transform="scale(0.93954,0.93954)"
       id="g12"><g
         id="g14"><g
           id="g16"><g
             clip-path="url(#clipPath22)"
             id="g18"><g
               transform="translate(-85.039,-453.542)"
               id="g24"><g
                 id="g26" /><g
                 id="g1430"><g
                   id="g462"><g
                     clip-path="url(#clipPath42)"
                     id="g460" /></g><g
                   id="g552"><g
                     clip-path="url(#clipPath78)"
                     id="g550" /></g><g
                   id="g646"><g
                     clip-path="url(#clipPath114)"
                     id="g644" /></g><g
                   id="g792"><g
                     clip-path="url(#clipPath150)"
                     id="g790" /></g><g
                   id="g902"><g
                     clip-path="url(#clipPath186)"
                     id="g900" /></g><g
                   id="g1070"><g
                     clip-path="url(#clipPath222)"
                     id="g1068" /></g><g
                   id="g1162"><g
                     clip-path="url(#clipPath258)"
                     id="g1160" /></g><path
                   inkscape:connector-curvature="0"
                   d="m 105.1,456.97 139.65,0.05"
                   style="fill:none;stroke:#000000;stroke-width:0.75;stroke-linecap:round;stroke-linejoin:round;stroke-miterlimit:10;stroke-dasharray:none;stroke-opacity:1"
                   id="path1246" /><path
                   inkscape:connector-curvature="0"
                   d="m 105.1,542.42 34.2,0.05"
                   style="fill:none;stroke:#000000;stroke-width:0.75;stroke-linecap:round;stroke-linejoin:round;stroke-miterlimit:10;stroke-dasharray:none;stroke-opacity:1"
                   id="path1248" /><path
                   inkscape:connector-curvature="0"
                   d="m 110.8,543.02 3.6,-0.02 c 0.28,0 0.5,-0.23 0.5,-0.5 0,-0.28 -0.23,-0.5 -0.5,-0.5 l -3.6,0.02 c -0.28,0 -0.5,0.23 -0.5,0.5 0,0.28 0.23,0.5 0.5,0.5 z m 2.61,1.48 5.99,-2.03 -6.01,-1.97 z"
                   style="fill:#000000;fill-opacity:1;fill-rule:nonzero;stroke:none"
                   id="path1250" /><g
                   transform="matrix(0.17639,-7.5e-8,0,0.23541,108.01,545.46)"
                   id="g1264"><g
                     transform="scale(5.538,4.0902)"
                     id="g1262"><g
                       clip-path="url(#clipPath294)"
                       id="g1260"><text
   transform="matrix(1,0,0,-1,5.6741,2.1973)"
   style="font-style:italic;font-variant:normal;font-weight:normal;font-size:10.215px;font-family:'Times New Roman';-inkscape-font-specification:'Times New Roman, Italic';writing-mode:lr-tb;fill:#000000;fill-opacity:1;fill-rule:nonzero;stroke:none"
   id="text1254"><tspan
     x="0"
     y="0"
     id="tspan1252"
     style="font-style:normal;font-variant:normal;font-weight:normal;font-stretch:normal;font-family:'Times New Roman';-inkscape-font-specification:'Times New Roman, '">a</tspan></text>
<text
   transform="matrix(1,0,0,-1,1.6035,5.2834)"
   style="font-style:italic;font-variant:normal;font-weight:normal;font-size:14.31000042px;font-family:'Times New Roman';-inkscape-font-specification:'Times New Roman, Italic';writing-mode:lr-tb;fill:#000000;fill-opacity:1;fill-rule:nonzero;stroke:none"
   id="text1258"><tspan
     x="0"
     y="0"
     id="tspan1256">i</tspan></text>
</g></g></g><path
                   inkscape:connector-curvature="0"
                   d="m 105.55,528.27 0.05,-54.85 c 0,-0.28 -0.23,-0.5 -0.5,-0.5 -0.28,0 -0.5,0.22 -0.5,0.5 l -0.05,54.85 c 0,0.28 0.22,0.5 0.5,0.5 0.28,0 0.5,-0.22 0.5,-0.5 z m 1.54,-53.85 -1.99,-6 -2.01,6 z"
                   style="fill:#000000;fill-opacity:1;fill-rule:nonzero;stroke:none"
                   id="path1266" /><g
                   transform="matrix(0.22014,-7.5e-8,0,0.23541,88.06,496.96)"
                   id="g1280"><g
                     transform="scale(4.4832,4.0902)"
                     id="g1278"><g
                       clip-path="url(#clipPath298)"
                       id="g1276"><text
   transform="matrix(1,0,0,-1,8.9551,2.1973)"
   style="font-style:italic;font-variant:normal;font-weight:normal;font-size:10.215px;font-family:'Times New Roman';-inkscape-font-specification:'Times New Roman, Italic';writing-mode:lr-tb;fill:#000000;fill-opacity:1;fill-rule:nonzero;stroke:none"
   id="text1270"><tspan
     x="0"
     y="0"
     id="tspan1268"
     style="font-style:normal;font-variant:normal;font-weight:normal;font-stretch:normal;font-family:'Times New Roman';-inkscape-font-specification:'Times New Roman, '">a</tspan></text>
<text
   transform="matrix(1,0,0,-1,1.5789,5.2834)"
   style="font-style:italic;font-variant:normal;font-weight:normal;font-size:14.31000042px;font-family:'Times New Roman';-inkscape-font-specification:'Times New Roman, Italic';writing-mode:lr-tb;fill:#000000;fill-opacity:1;fill-rule:nonzero;stroke:none"
   id="text1274"><tspan
     x="0"
     y="0"
     id="tspan1272">u</tspan></text>
</g></g></g><path
                   inkscape:connector-curvature="0"
                   d="m 164.8,542.71 c 0,2.41 1.9,4.36 4.25,4.36 2.35,0 4.25,-1.95 4.25,-4.36 0,-0.07 0,-0.13 0,-0.19"
                   style="fill:none;stroke:#000000;stroke-width:0.75;stroke-linecap:round;stroke-linejoin:round;stroke-miterlimit:10;stroke-dasharray:none;stroke-opacity:1"
                   id="path1282" /><path
                   inkscape:connector-curvature="0"
                   d="m 156.3,542.96 c 0,2.41 1.9,4.36 4.25,4.36 2.35,0 4.25,-1.95 4.25,-4.36 0,-0.07 0,-0.13 0,-0.19"
                   style="fill:none;stroke:#000000;stroke-width:0.75;stroke-linecap:round;stroke-linejoin:round;stroke-miterlimit:10;stroke-dasharray:none;stroke-opacity:1"
                   id="path1284" /><path
                   inkscape:connector-curvature="0"
                   d="m 147.8,542.96 c 0,2.41 1.89,4.36 4.22,4.36 2.34,0 4.23,-1.95 4.23,-4.36 0,-0.07 0,-0.13 0,-0.19"
                   style="fill:none;stroke:#000000;stroke-width:0.75;stroke-linecap:round;stroke-linejoin:round;stroke-miterlimit:10;stroke-dasharray:none;stroke-opacity:1"
                   id="path1286" /><g
                   id="g1290"><g
                     clip-path="url(#clipPath302)"
                     id="g1288" /></g><path
                   inkscape:connector-curvature="0"
                   d="m 139.35,542.96 c 0,2.41 1.9,4.36 4.25,4.36 2.35,0 4.25,-1.95 4.25,-4.36 0,-0.07 0,-0.13 0,-0.19"
                   style="fill:none;stroke:#000000;stroke-width:0.75;stroke-linecap:round;stroke-linejoin:round;stroke-miterlimit:10;stroke-dasharray:none;stroke-opacity:1"
                   id="path1292" /><g
                   id="g1296"><g
                     clip-path="url(#clipPath306)"
                     id="g1294" /></g><path
                   inkscape:connector-curvature="0"
                   d="m 244.72,514.02 c -6.28,0 -11.37,-5.13 -11.37,-11.45 0,-6.32 5.09,-11.45 11.37,-11.45 6.29,0 11.38,5.13 11.38,11.45 0,6.32 -5.09,11.45 -11.38,11.45 z"
                   style="fill:#ffffff;fill-opacity:1;fill-rule:evenodd;stroke:none"
                   id="path1298" /><path
                   inkscape:connector-curvature="0"
                   d="m 244.72,514.02 c -6.28,0 -11.37,-5.13 -11.37,-11.45 0,-6.32 5.09,-11.45 11.37,-11.45 6.29,0 11.38,5.13 11.38,11.45 0,6.32 -5.09,11.45 -11.38,11.45 z"
                   style="fill:none;stroke:#000000;stroke-width:0.75;stroke-linecap:round;stroke-linejoin:round;stroke-miterlimit:10;stroke-dasharray:none;stroke-opacity:1"
                   id="path1300" /><path
                   inkscape:connector-curvature="0"
                   d="m 265.15,514.02 0.04,-17.8 c 0,-0.28 -0.22,-0.5 -0.5,-0.5 -0.28,0 -0.5,0.22 -0.5,0.5 l -0.04,17.8 c 0,0.28 0.22,0.5 0.5,0.5 0.28,0 0.5,-0.22 0.5,-0.5 z m 2.54,-16.79 -2.99,-6.01 -3.01,5.99 z"
                   style="fill:#000000;fill-opacity:1;fill-rule:nonzero;stroke:none"
                   id="path1302" /><path
                   inkscape:connector-curvature="0"
                   d="m 173.5,542.42 71.25,0.1"
                   style="fill:none;stroke:#000000;stroke-width:0.75;stroke-linecap:round;stroke-linejoin:round;stroke-miterlimit:10;stroke-dasharray:none;stroke-opacity:1"
                   id="path1304" /><path
                   inkscape:connector-curvature="0"
                   d="m 187.75,536.82 34.7,0 0,11.4 -34.7,0 z"
                   style="fill:#ffffff;fill-opacity:1;fill-rule:evenodd;stroke:none"
                   id="path1306" /><path
                   inkscape:connector-curvature="0"
                   d="m 187.75,536.82 34.7,0 0,11.4 -34.7,0 z"
                   style="fill:none;stroke:#000000;stroke-width:0.75;stroke-linecap:round;stroke-linejoin:miter;stroke-miterlimit:8;stroke-dasharray:none;stroke-opacity:1"
                   id="path1308" /><g
                   transform="matrix(0.23542,-7.5e-8,-1.9e-8,0.23542,150.76,551.11)"
                   id="g1322"><g
                     transform="scale(4.2794,4.0902)"
                     id="g1320"><g
                       clip-path="url(#clipPath310)"
                       id="g1318"><text
   transform="matrix(1,0,0,-1,9.4979,2.1973)"
   style="font-style:italic;font-variant:normal;font-weight:normal;font-size:10.215px;font-family:'Times New Roman';-inkscape-font-specification:'Times New Roman, Italic';writing-mode:lr-tb;fill:#000000;fill-opacity:1;fill-rule:nonzero;stroke:none"
   id="text1312"><tspan
     x="0"
     y="0"
     id="tspan1310"
     style="font-style:normal;font-variant:normal;font-weight:normal;font-stretch:normal;font-family:'Times New Roman';-inkscape-font-specification:'Times New Roman, '">a</tspan></text>
<text
   transform="matrix(1,0,0,-1,2.319,5.2834)"
   style="font-style:italic;font-variant:normal;font-weight:normal;font-size:14.31000042px;font-family:'Times New Roman';-inkscape-font-specification:'Times New Roman, Italic';writing-mode:lr-tb;fill:#000000;fill-opacity:1;fill-rule:nonzero;stroke:none"
   id="text1316"><tspan
     x="0"
     y="0"
     id="tspan1314">L</tspan></text>
</g></g></g><g
                   transform="matrix(0.25,-7.5e-8,-1.9e-8,0.23542,196.36,551.11)"
                   id="g1336"><g
                     transform="scale(4.0933,4.0902)"
                     id="g1334"><g
                       clip-path="url(#clipPath314)"
                       id="g1332"><text
   transform="matrix(1,0,0,-1,9.9913,2.1726)"
   style="font-style:italic;font-variant:normal;font-weight:normal;font-size:10.215px;font-family:'Times New Roman';-inkscape-font-specification:'Times New Roman, Italic';writing-mode:lr-tb;fill:#000000;fill-opacity:1;fill-rule:nonzero;stroke:none"
   id="text1326"><tspan
     x="0"
     y="0"
     id="tspan1324"
     style="font-style:normal;font-variant:normal;font-weight:normal;font-stretch:normal;font-family:'Times New Roman';-inkscape-font-specification:'Times New Roman, '">a</tspan></text>
<text
   transform="matrix(1,0,0,-1,2.245,5.2587)"
   style="font-style:italic;font-variant:normal;font-weight:normal;font-size:14.33500004px;font-family:'Times New Roman';-inkscape-font-specification:'Times New Roman, Italic';writing-mode:lr-tb;fill:#000000;fill-opacity:1;fill-rule:nonzero;stroke:none"
   id="text1330"><tspan
     x="0"
     y="0"
     id="tspan1328">R</tspan></text>
</g></g></g><g
                   id="g1384"><g
                     clip-path="url(#clipPath326)"
                     id="g1382" /></g><g
                   id="g1390"><g
                     clip-path="url(#clipPath330)"
                     id="g1388" /></g><path
                   inkscape:connector-curvature="0"
                   d="m 244.7,542.52 0.1,-85.5"
                   style="fill:none;stroke:#000000;stroke-width:0.75;stroke-linecap:round;stroke-linejoin:round;stroke-miterlimit:8;stroke-dasharray:none;stroke-opacity:1"
                   id="path1426" /><g
                   transform="matrix(0.72222,-7.5e-8,-3.8e-8,0.2493,246.85511,496.01)"
                   id="g1244"><g
                     transform="scale(1.4484,3.9198)"
                     id="g1242"><g
                       clip-path="url(#clipPath290)"
                       id="g1240"><text
   transform="matrix(0.94869278,0,-0.31619931,-0.94869278,38.732,6.3697)"
   style="font-weight:normal;font-size:14.6384px;font-family:'Times New Roman';-inkscape-font-specification:Symbol;writing-mode:lr-tb;fill:#000000;fill-opacity:1;fill-rule:nonzero;stroke:none"
   id="text1214"><tspan
     x="0"
     y="0"
     id="tspan1212">ω</tspan></text>
<text
   transform="matrix(0.94869278,0,-0.31619931,-0.94869278,21.364,6.3697)"
   style="font-weight:normal;font-size:14.6384px;font-family:'Times New Roman';-inkscape-font-specification:Symbol;writing-mode:lr-tb;fill:#000000;fill-opacity:1;fill-rule:nonzero;stroke:none"
   id="text1218"><tspan
     x="0"
     y="0"
     id="tspan1216">ψ'</tspan></text>
<text
   transform="matrix(1,0,0,-1,31.577,3.3824)"
   style="font-style:italic;font-variant:normal;font-weight:normal;font-size:9.993px;font-family:'Times New Roman';-inkscape-font-specification:'Times New Roman, Italic';writing-mode:lr-tb;fill:#000000;fill-opacity:1;fill-rule:nonzero;stroke:none"
   id="text1222"><tspan
     x="0"
     y="0"
     id="tspan1220"
     style="font-style:normal;font-variant:normal;font-weight:normal;font-stretch:normal;font-family:'Times New Roman';-inkscape-font-specification:'Times New Roman, '">e</tspan></text>
<text
   transform="matrix(1,0,0,-1,7.4256,3.3824)"
   style="font-style:italic;font-variant:normal;font-weight:normal;font-size:9.993px;font-family:'Times New Roman';-inkscape-font-specification:'Times New Roman, Italic';writing-mode:lr-tb;fill:#000000;fill-opacity:1;fill-rule:nonzero;stroke:none"
   id="text1226"><tspan
     x="0"
     y="0"
     id="tspan1224" /></text>
<text
   transform="matrix(1,0,0,-1,1.4555,6.3697)"
   style="font-style:italic;font-variant:normal;font-weight:normal;font-size:11.99px;font-family:'Times New Roman';-inkscape-font-specification:'Times New Roman, Italic';writing-mode:lr-tb;fill:#000000;fill-opacity:1;fill-rule:nonzero;stroke:none"
   id="text1230"><tspan
     x="0"
     y="0"
     id="tspan1228" /></text>
<text
   transform="matrix(1,0,0,-1,31.627,7.061)"
   style="font-variant:normal;font-weight:normal;font-size:11.99px;font-family:Symbol;-inkscape-font-specification:Symbol;writing-mode:lr-tb;fill:#000000;fill-opacity:1;fill-rule:nonzero;stroke:none"
   id="text1234"><tspan
     x="0"
     y="0"
     id="tspan1232" /></text>
<text
   transform="matrix(1,0,0,-1,13.766,6.3697)"
   style="font-weight:normal;font-size:11.99px;font-family:'Times New Roman';-inkscape-font-specification:Symbol;writing-mode:lr-tb;fill:#000000;fill-opacity:1;fill-rule:nonzero;stroke:none"
   id="text1238"><tspan
     x="0"
     y="0"
     id="tspan1236" /></text>
</g></g></g></g></g></g></g></g></g></g></svg>
