<?xml version="1.0" encoding="UTF-8" standalone="no"?>
<svg
   xmlns:dc="http://purl.org/dc/elements/1.1/"
   xmlns:cc="http://creativecommons.org/ns#"
   xmlns:rdf="http://www.w3.org/1999/02/22-rdf-syntax-ns#"
   xmlns:svg="http://www.w3.org/2000/svg"
   xmlns="http://www.w3.org/2000/svg"
   version="1.1"
   id="svg815"
   xml:space="preserve"
   width="793.33331"
   height="1122.6667"
   viewBox="0 0 793.33331 1122.6667"><metadata
     id="metadata821"><rdf:RDF><cc:Work
         rdf:about=""><dc:format>image/svg+xml</dc:format><dc:type
           rdf:resource="http://purl.org/dc/dcmitype/StillImage" /><dc:title></dc:title></cc:Work></rdf:RDF></metadata><defs
     id="defs819"><clipPath
   clipPathUnits="userSpaceOnUse"
   id="clipPath831"><path
     d="m 180,343.5 v 155 h 235 v -155 z"
     id="path829" /></clipPath><clipPath
   clipPathUnits="userSpaceOnUse"
   id="clipPath839"><path
     d="m 180,498.5 h 235 v -155 H 180 v 155 z"
     id="path837"
     style="clip-rule:evenodd" /></clipPath><clipPath
   clipPathUnits="userSpaceOnUse"
   id="clipPath18"><path
     d="m 180,343.5 v 155 h 235 v -155 z"
     id="path16" /></clipPath><clipPath
   clipPathUnits="userSpaceOnUse"
   id="clipPath26"><path
     d="m 180,498.5 h 235 v -155 H 180 Z"
     id="path24"
     style="clip-rule:evenodd" /></clipPath>

</defs><g
     id="g823"
     transform="matrix(1.3333333,0,0,-1.3333333,0,1122.6667)"><rect
   style="opacity:1;fill:#ffffff;fill-opacity:1;stroke:#ffffff;stroke-width:0.75118101;stroke-miterlimit:4;stroke-dasharray:none;stroke-opacity:1"
   id="rect840"
   width="749.24884"
   height="404.99997"
   x="-104.62441"
   y="-765.37555"
   transform="scale(1,-1)" /><text
   xml:space="preserve"
   style="font-style:italic;font-variant:normal;font-weight:bold;font-stretch:normal;font-size:114.42px;line-height:1.25;font-family:sans-serif;-inkscape-font-specification:'sans-serif Bold Italic';letter-spacing:0px;word-spacing:0px;opacity:1;fill:#15366f;fill-opacity:1;stroke:none;stroke-width:2.8605;stroke-opacity:1"
   x="928.87695"
   y="-402.10867"
   id="text4566"
   transform="matrix(0.88705981,0,0.13030033,-1.1273197,0,0)" />
















<text
   xml:space="preserve"
   style="font-style:normal;font-weight:normal;font-size:30px;line-height:1.25;font-family:sans-serif;letter-spacing:0px;word-spacing:0px;fill:#000000;fill-opacity:1;stroke:none;stroke-width:0.75"
   x="345"
   y="-67.499969"
   id="text5302"
   transform="scale(1,-1)" />



















<text
   xml:space="preserve"
   style="font-style:italic;font-variant:normal;font-weight:bold;font-stretch:normal;font-size:114.42px;line-height:1.25;font-family:sans-serif;-inkscape-font-specification:'sans-serif Bold Italic';letter-spacing:0px;word-spacing:0px;opacity:1;fill:#15366f;fill-opacity:1;stroke:none;stroke-width:2.8605;stroke-opacity:1"
   x="383.84619"
   y="-456.13754"
   id="text4566-0"
   transform="matrix(0.88705982,0,0.33451312,-1.1273197,0,0)" />















<text
   xml:space="preserve"
   style="font-style:italic;font-variant:normal;font-weight:bold;font-stretch:normal;font-size:114.42px;line-height:1.25;font-family:sans-serif;-inkscape-font-specification:'sans-serif Bold Italic';letter-spacing:0px;word-spacing:0px;opacity:1;fill:#15366f;fill-opacity:1;stroke:none;stroke-width:2.8605;stroke-opacity:1"
   x="230.95627"
   y="-347.14828"
   id="text4566-0-2"
   transform="matrix(0.88705982,0,0.33451312,-1.1273197,0,0)" />















<text
   xml:space="preserve"
   style="font-style:italic;font-variant:normal;font-weight:bold;font-stretch:normal;font-size:114.42px;line-height:1.25;font-family:sans-serif;-inkscape-font-specification:'sans-serif Bold Italic';letter-spacing:0px;word-spacing:0px;opacity:1;fill:#15366f;fill-opacity:1;stroke:none;stroke-width:2.8605;stroke-opacity:1"
   x="216.30148"
   y="-244.00908"
   id="text4566-0-7"
   transform="matrix(0.88705982,0,0.33451312,-1.1273197,0,0)" />





















<text
   xml:space="preserve"
   style="font-style:normal;font-weight:normal;font-size:122.088px;line-height:1.25;font-family:sans-serif;letter-spacing:5.73366px;word-spacing:0px;writing-mode:lr-tb;fill:#15366f;fill-opacity:1;stroke:none;stroke-width:1.35;stroke-miterlimit:4;stroke-dasharray:none"
   x="117.79608"
   y="-373.3425"
   id="text857"
   transform="scale(1,-1)"><tspan
     id="tspan855"
     x="117.79608"
     y="-373.3425"
     style="font-style:normal;font-variant:normal;font-weight:bold;font-stretch:normal;font-family:sans-serif;-inkscape-font-specification:'sans-serif Bold';letter-spacing:5.73366px;writing-mode:lr-tb;text-orientation:upright;fill:#15366f;fill-opacity:1;stroke-width:1.35;stroke-miterlimit:4;stroke-dasharray:none">GEM</tspan></text>

























<text
   xml:space="preserve"
   style="font-style:normal;font-weight:normal;font-size:30px;line-height:1.25;font-family:sans-serif;letter-spacing:0px;word-spacing:0px;fill:#000000;fill-opacity:1;stroke:none;stroke-width:0.75"
   x="232.5"
   y="-472.49997"
   id="text4608"
   transform="scale(1,-1)" />

























<g
   transform="matrix(1.1622476,0,0,1.1622476,709.67363,-234.77045)"
   id="g12"
   style="stroke-width:0.86040181"><g
     id="g14"
     clip-path="url(#clipPath18)"
     style="stroke-width:0.86040181"><g
       id="g20"
       style="stroke-width:0.86040181"><g
         id="g22"
         clip-path="url(#clipPath26)"
         style="stroke-width:0.86040181" /></g></g></g>



<circle
   r="126.70612"
   cx="270"
   cy="-631.28302"
   transform="scale(1,-1)"
   id="path872"
   style="fill:none;fill-opacity:1;stroke:#15366f;stroke-width:6;stroke-miterlimit:4;stroke-dasharray:none;stroke-opacity:1" /><path
   transform="scale(1,-1)"
   id="path897"
   style="fill:none;fill-opacity:1;stroke:#15366f;stroke-width:6;stroke-linecap:round;stroke-miterlimit:4;stroke-dasharray:none;stroke-opacity:1;paint-order:stroke fill markers"
   d="m 357.68507,-580.65803 a 101.24999,101.24998 0 0 1 -37.06008,37.06006" /><path
   transform="scale(1,-1)"
   id="path897-5"
   style="fill:none;fill-opacity:1;stroke:#15366f;stroke-width:6;stroke-linecap:round;stroke-miterlimit:4;stroke-dasharray:none;stroke-opacity:1"
   d="m 296.20543,-533.48305 a 101.24999,101.24998 0 0 1 -52.41085,0" /><path
   transform="scale(1,-1)"
   id="path897-5-5"
   style="fill:none;fill-opacity:1;stroke:#15366f;stroke-width:6;stroke-linecap:round;stroke-miterlimit:4;stroke-dasharray:none;stroke-opacity:1"
   d="m 219.375,-543.59797 a 101.24999,101.24998 0 0 1 -37.06007,-37.06006" /><path
   transform="scale(1,-1)"
   id="path897-5-5-1"
   style="fill:none;fill-opacity:1;stroke:#15366f;stroke-width:6;stroke-linecap:round;stroke-miterlimit:4;stroke-dasharray:none;stroke-opacity:1"
   d="m 172.20002,-605.0776 a 101.24999,101.24998 0 0 1 0,-52.41084" /><path
   transform="scale(1,-1)"
   id="path897-5-5-1-5"
   style="fill:none;fill-opacity:1;stroke:#15366f;stroke-width:6;stroke-linecap:round;stroke-linejoin:round;stroke-miterlimit:4;stroke-dasharray:none;stroke-opacity:1"
   d="M 182.31493,-681.90801 A 101.24999,101.24998 0 0 1 219.375,-718.96807" /><path
   transform="scale(1,-1)"
   id="path897-5-5-1-5-8"
   style="fill:none;fill-opacity:1;stroke:#15366f;stroke-width:6;stroke-linecap:round;stroke-miterlimit:4;stroke-dasharray:none;stroke-opacity:1"
   d="m 243.79457,-729.08299 a 101.24999,101.24998 0 0 1 52.41086,0" /><path
   transform="scale(1,-1)"
   id="path897-5-5-1-5-8-4"
   style="fill:none;fill-opacity:1;stroke:#15366f;stroke-width:6;stroke-linecap:round;stroke-miterlimit:4;stroke-dasharray:none;stroke-opacity:1"
   d="m 367.79998,-657.48844 a 101.24999,101.24998 0 0 1 0,52.41084" /><path
   transform="scale(1,-1)"
   id="path897-5-5-1-5-8-4-6"
   style="fill:none;fill-opacity:1;stroke:#15366f;stroke-width:6;stroke-linecap:round;stroke-miterlimit:4;stroke-dasharray:none;stroke-opacity:1"
   d="m 320.625,-718.96807 a 101.24999,101.24998 0 0 1 37.06006,37.06006" /><path
   id="path1017"
   d="m 270,631.28298 v -101.25"
   style="fill:none;stroke:#15366f;stroke-width:6;stroke-linecap:butt;stroke-linejoin:miter;stroke-miterlimit:4;stroke-dasharray:none;stroke-opacity:1" /><path
   id="path1017-7"
   d="M 270,631.28298 H 168.75"
   style="fill:none;stroke:#15366f;stroke-width:6;stroke-linecap:butt;stroke-linejoin:miter;stroke-miterlimit:4;stroke-dasharray:none;stroke-opacity:1" /><path
   id="path1017-2"
   d="m 198.75,704.03298 71.25,-72.75"
   style="fill:none;stroke:#15366f;stroke-width:6;stroke-linecap:butt;stroke-linejoin:miter;stroke-miterlimit:4;stroke-dasharray:none;stroke-opacity:1" /><path
   id="path1017-2-9"
   d="m 270,631.28298 71.25001,-71.25"
   style="fill:none;stroke:#15366f;stroke-width:6;stroke-linecap:butt;stroke-linejoin:miter;stroke-miterlimit:4;stroke-dasharray:none;stroke-opacity:1" /><path
   id="path1017-2-4"
   d="m 198.75,560.03298 71.25,71.25"
   style="fill:none;stroke:#15366f;stroke-width:6;stroke-linecap:butt;stroke-linejoin:miter;stroke-miterlimit:4;stroke-dasharray:none;stroke-opacity:1" /><path
   id="path1017-2-3"
   d="M 270,631.28298 H 371.25001"
   style="fill:none;stroke:#15366f;stroke-width:6;stroke-linecap:butt;stroke-linejoin:miter;stroke-miterlimit:4;stroke-dasharray:none;stroke-opacity:1" /><path
   id="path1017-2-0"
   d="m 270,732.53298 v -101.25"
   style="fill:none;stroke:#15366f;stroke-width:6;stroke-linecap:butt;stroke-linejoin:miter;stroke-miterlimit:4;stroke-dasharray:none;stroke-opacity:1" /><path
   id="path1017-2-6"
   d="M 341.25001,702.53298 270,631.28298"
   style="fill:none;stroke:#15366f;stroke-width:6;stroke-linecap:butt;stroke-linejoin:miter;stroke-miterlimit:4;stroke-dasharray:none;stroke-opacity:1" /><circle
   transform="scale(1,-1)"
   cx="270"
   cy="-631.28302"
   r="40.062141"
   id="path872-1"
   style="fill:#ffffff;fill-opacity:1;stroke:#15366f;stroke-width:6;stroke-miterlimit:4;stroke-dasharray:none;stroke-opacity:1" /><path
   style="fill:none;stroke:#15366f;stroke-width:6;stroke-linecap:round;stroke-linejoin:miter;stroke-miterlimit:4;stroke-dasharray:none;stroke-opacity:1"
   d="M 240,751.28298 V 736.28299"
   id="path1017-2-0-3" /><path
   style="fill:none;stroke:#15366f;stroke-width:6;stroke-linecap:round;stroke-linejoin:miter;stroke-miterlimit:4;stroke-dasharray:none;stroke-opacity:1"
   d="m 300,751.28298 v -15"
   id="path1017-2-0-3-6" /><path
   style="fill:none;fill-opacity:1;stroke:#15366f;stroke-width:6;stroke-linecap:round;stroke-miterlimit:4;stroke-dasharray:none;stroke-opacity:1"
   id="path897-5-5-1-5-8-49"
   transform="scale(1,-1)"
   d="m 240.00003,-736.28299 a 101.24999,101.24998 0 0 1 59.20527,0" /><path
   style="fill:none;stroke:#15366f;stroke-width:6;stroke-linecap:round;stroke-linejoin:miter;stroke-miterlimit:4;stroke-dasharray:none;stroke-opacity:1"
   d="M 390,661.28299 H 375.00001"
   id="path1017-2-0-3-69" /><path
   style="fill:none;stroke:#15366f;stroke-width:6;stroke-linecap:round;stroke-linejoin:miter;stroke-miterlimit:4;stroke-dasharray:none;stroke-opacity:1"
   d="M 390,601.28299 H 375"
   id="path1017-2-0-3-6-0" /><path
   style="fill:none;fill-opacity:1;stroke:#15366f;stroke-width:6;stroke-linecap:round;stroke-miterlimit:4;stroke-dasharray:none;stroke-opacity:1"
   id="path897-5-5-1-5-8-49-8"
   transform="matrix(0,-1,-1,0,0,0)"
   d="m -660.48825,-374.99997 a 101.24999,101.24998 0 0 1 59.20527,0" /><path
   style="fill:none;stroke:#15366f;stroke-width:6;stroke-linecap:round;stroke-linejoin:miter;stroke-miterlimit:4;stroke-dasharray:none;stroke-opacity:1"
   d="m 300.00004,511.28294 v 14.99999"
   id="path1017-2-0-3-60-7" /><path
   style="fill:none;stroke:#15366f;stroke-width:6;stroke-linecap:round;stroke-linejoin:miter;stroke-miterlimit:4;stroke-dasharray:none;stroke-opacity:1"
   d="m 240.00004,511.28294 v 15"
   id="path1017-2-0-3-6-1-0" /><path
   style="fill:none;fill-opacity:1;stroke:#15366f;stroke-width:6;stroke-linecap:round;stroke-miterlimit:4;stroke-dasharray:none;stroke-opacity:1"
   id="path897-5-5-1-5-8-49-5-2"
   transform="scale(-1,1)"
   d="m -299.20529,526.28293 a 101.24999,101.24998 0 0 1 59.20527,0" /><path
   style="fill:none;stroke:#15366f;stroke-width:6;stroke-linecap:round;stroke-linejoin:miter;stroke-miterlimit:4;stroke-dasharray:none;stroke-opacity:1"
   d="m 149.99997,600.48825 h 14.99999"
   id="path1017-2-0-3-60-9" /><path
   style="fill:none;stroke:#15366f;stroke-width:6;stroke-linecap:round;stroke-linejoin:miter;stroke-miterlimit:4;stroke-dasharray:none;stroke-opacity:1"
   d="m 149.99997,660.48825 h 15"
   id="path1017-2-0-3-6-1-8" /><path
   style="fill:none;fill-opacity:1;stroke:#15366f;stroke-width:6;stroke-linecap:round;stroke-miterlimit:4;stroke-dasharray:none;stroke-opacity:1"
   id="path897-5-5-1-5-8-49-5-0"
   transform="matrix(0,1,1,0,0,0)"
   d="m 601.28299,165 a 101.24999,101.24998 0 0 1 59.20527,0" /><path
   style="fill:none;stroke:#15366f;stroke-width:6;stroke-linecap:round;stroke-linejoin:miter;stroke-miterlimit:4;stroke-dasharray:none;stroke-opacity:1"
   d="M 334.6066,737.13958 324,726.53298"
   id="path1017-2-0-3-60-0" /><path
   style="fill:none;stroke:#15366f;stroke-width:6;stroke-linecap:round;stroke-linejoin:miter;stroke-miterlimit:4;stroke-dasharray:none;stroke-opacity:1"
   d="m 377.033,694.71317 -10.6066,-10.6066"
   id="path1017-2-0-3-6-1-89" /><path
   style="fill:none;fill-opacity:1;stroke:#15366f;stroke-width:6;stroke-linecap:round;stroke-miterlimit:4;stroke-dasharray:none;stroke-opacity:1"
   id="path897-5-5-1-5-8-49-5-5"
   transform="matrix(0.70710678,-0.70710678,-0.70710678,-0.70710678,0,0)"
   d="m -283.83905,-742.83896 a 101.24999,101.24998 0 0 1 59.20527,0" /><path
   style="fill:none;stroke:#15366f;stroke-width:6;stroke-linecap:round;stroke-linejoin:miter;stroke-miterlimit:4;stroke-dasharray:none;stroke-opacity:1"
   d="m 163.8236,695.34593 10.60659,-10.60659"
   id="path1017-2-0-3-60-0-6" /><path
   style="fill:none;stroke:#15366f;stroke-width:6;stroke-linecap:round;stroke-linejoin:miter;stroke-miterlimit:4;stroke-dasharray:none;stroke-opacity:1"
   d="m 206.25001,737.77234 10.6066,-10.6066"
   id="path1017-2-0-3-6-1-89-9" /><path
   style="fill:none;fill-opacity:1;stroke:#15366f;stroke-width:6;stroke-linecap:round;stroke-miterlimit:4;stroke-dasharray:none;stroke-opacity:1"
   id="path897-5-5-1-5-8-49-5-5-0"
   transform="matrix(0.70710678,0.70710678,0.70710678,-0.70710678,0,0)"
   d="m 608.31936,-360.84302 a 101.24999,101.24998 0 0 1 59.20527,1e-5" /><path
   style="fill:none;stroke:#15366f;stroke-width:6;stroke-linecap:round;stroke-linejoin:miter;stroke-miterlimit:4;stroke-dasharray:none;stroke-opacity:1"
   d="m 205.20535,525.61439 10.60659,10.6066"
   id="path1017-2-0-3-60-0-4" /><path
   style="fill:none;stroke:#15366f;stroke-width:6;stroke-linecap:round;stroke-linejoin:miter;stroke-miterlimit:4;stroke-dasharray:none;stroke-opacity:1"
   d="m 162.77894,568.0408 10.6066,10.6066"
   id="path1017-2-0-3-6-1-89-6" /><path
   style="fill:none;fill-opacity:1;stroke:#15366f;stroke-width:6;stroke-linecap:round;stroke-miterlimit:4;stroke-dasharray:none;stroke-opacity:1"
   id="path897-5-5-1-5-8-49-5-5-6"
   transform="matrix(-0.70710678,0.70710678,0.70710678,0.70710678,0,0)"
   d="m 227.35812,531.76767 a 101.24999,101.24998 0 0 1 59.20527,0" /><path
   style="fill:none;stroke:#15366f;stroke-width:6;stroke-linecap:round;stroke-linejoin:miter;stroke-miterlimit:4;stroke-dasharray:none;stroke-opacity:1"
   d="M 376.6066,567.42639 366,578.03299"
   id="path1017-2-0-3-60-0-3" /><path
   style="fill:none;stroke:#15366f;stroke-width:6;stroke-linecap:round;stroke-linejoin:miter;stroke-miterlimit:4;stroke-dasharray:none;stroke-opacity:1"
   d="m 334.18019,524.99998 -10.6066,10.60661"
   id="path1017-2-0-3-6-1-89-7" /><path
   style="fill:none;fill-opacity:1;stroke:#15366f;stroke-width:6;stroke-linecap:round;stroke-miterlimit:4;stroke-dasharray:none;stroke-opacity:1"
   id="path897-5-5-1-5-8-49-5-5-8"
   transform="matrix(-0.70710678,-0.70710678,-0.70710678,0.70710678,0,0)"
   d="m -666.7374,149.92999 a 101.24999,101.24998 0 0 1 59.20527,1e-5" /><path
   style="fill:none;fill-opacity:1;stroke:#15366f;stroke-width:3;stroke-linecap:round;stroke-linejoin:round;stroke-miterlimit:4;stroke-dasharray:none;stroke-opacity:1;paint-order:stroke fill markers"
   id="path891"
   transform="scale(1,-1)"
   d="m 256.34101,-656.4225 a 6.1213951,6.1189766 0 0 1 2.73323,-5.49401 6.1213951,6.1189766 0 0 1 6.12764,-0.36136 6.1213951,6.1189766 0 0 1 3.36053,5.13465" /><path
   style="fill:none;fill-opacity:1;stroke:#15366f;stroke-width:3;stroke-linecap:round;stroke-linejoin:round;stroke-miterlimit:4;stroke-dasharray:none;stroke-opacity:1;paint-order:stroke fill markers"
   id="path891-3"
   transform="scale(1,-1)"
   d="m 251.22345,-647.55706 a 6.1213951,6.1189766 0 0 1 0.26686,-5.6625 6.1213951,6.1189766 0 0 1 4.80333,-3.01351" /><path
   style="fill:none;fill-opacity:1;stroke:#15366f;stroke-width:3;stroke-linecap:round;stroke-linejoin:round;stroke-miterlimit:4;stroke-dasharray:none;stroke-opacity:1;paint-order:stroke fill markers"
   id="path891-4"
   transform="scale(1,-1)"
   d="m 247.2671,-637.61008 a 6.1213951,6.1189766 0 0 1 -1.06207,-6.18544 6.1213951,6.1189766 0 0 1 4.94504,-3.86686" /><path
   style="fill:none;fill-opacity:1;stroke:#15366f;stroke-width:3;stroke-linecap:round;stroke-linejoin:round;stroke-miterlimit:4;stroke-dasharray:none;stroke-opacity:1;paint-order:stroke fill markers"
   id="path891-44"
   transform="scale(1,-1)"
   d="m 241.5265,-629.37703 a 6.1213951,6.1189766 0 0 1 3.15394,-7.5666 6.1213951,6.1189766 0 0 1 7.85348,2.3589" /><path
   style="fill:none;fill-opacity:1;stroke:#15366f;stroke-width:3;stroke-linecap:round;stroke-linejoin:round;stroke-miterlimit:4;stroke-dasharray:none;stroke-opacity:1;paint-order:stroke fill markers"
   id="path891-6"
   transform="scale(1,-1)"
   d="m 256.63655,-614.53901 a 6.1213951,6.1189766 0 0 1 -3.1667,5.86262 6.1213951,6.1189766 0 0 1 -6.64616,-0.5038 6.1213951,6.1189766 0 0 1 -2.24606,-6.27292" /><path
   style="fill:none;fill-opacity:1;stroke:#15366f;stroke-width:3;stroke-linecap:round;stroke-linejoin:round;stroke-miterlimit:4;stroke-dasharray:none;stroke-opacity:1;paint-order:stroke fill markers"
   id="path891-0"
   transform="scale(1,-1)"
   d="m 261.24839,-605.02062 a 6.1213951,6.1189766 0 0 1 -6.19135,1.74176 6.1213951,6.1189766 0 0 1 -4.3315,-4.75282" /><path
   style="fill:none;fill-opacity:1;stroke:#15366f;stroke-width:3;stroke-linecap:round;stroke-linejoin:round;stroke-miterlimit:4;stroke-dasharray:none;stroke-opacity:1;paint-order:stroke fill markers"
   id="path891-9"
   transform="scale(1,-1)"
   d="m 268.56454,-605.75421 a 6.1213951,6.1189766 0 0 1 -4.52305,5.90671 6.1213951,6.1189766 0 0 1 -6.88506,-2.82214" /><path
   style="fill:none;fill-opacity:1;stroke:#15366f;stroke-width:3;stroke-linecap:round;stroke-linejoin:round;stroke-miterlimit:4;stroke-dasharray:none;stroke-opacity:1;paint-order:stroke fill markers"
   id="path891-2"
   transform="scale(1,-1)"
   d="m 244.33894,-615.64713 a 6.1213951,6.1189766 0 0 1 -1.07868,-6.88351" /><path
   style="fill:none;fill-opacity:1;stroke:#15366f;stroke-width:3;stroke-linecap:round;stroke-linejoin:round;stroke-miterlimit:4;stroke-dasharray:none;stroke-opacity:1;paint-order:stroke fill markers"
   id="path891-5"
   transform="scale(1,-1)"
   d="m 242.66279,-622.30368 a 6.1213951,6.1189766 0 0 1 -0.19879,-7.07188" /><path
   style="fill:none;fill-opacity:1;stroke:#15366f;stroke-width:3;stroke-linecap:butt;stroke-linejoin:miter;stroke-miterlimit:4;stroke-dasharray:none;stroke-opacity:1"
   d="M 268.56135,656.9317 V 605.5323"
   id="path950" /><path
   style="fill:none;fill-opacity:1;stroke:#15366f;stroke-width:3;stroke-linecap:round;stroke-linejoin:round;stroke-miterlimit:4;stroke-dasharray:none;stroke-opacity:1"
   d="M 286.51744,642.24616 V 614.50678"
   id="path950-3" /><path
   style="fill:none;fill-opacity:1;stroke:#15366f;stroke-width:3;stroke-linecap:round;stroke-linejoin:miter;stroke-miterlimit:4;stroke-dasharray:none;stroke-opacity:1"
   d="m 286.51744,614.5068 -17.95609,-2e-5"
   id="path950-3-5" /><path
   style="fill:none;fill-opacity:1;stroke:#15366f;stroke-width:3;stroke-linecap:round;stroke-linejoin:miter;stroke-miterlimit:4;stroke-dasharray:none;stroke-opacity:1"
   d="m 280.80414,647.9572 -12.24279,-2e-5"
   id="path950-3-6" /><path
   style="fill:none;fill-opacity:1;stroke:#15366f;stroke-width:3;stroke-linecap:round;stroke-linejoin:round;stroke-miterlimit:4;stroke-dasharray:none;stroke-opacity:1;paint-order:stroke fill markers"
   id="path891-3-3"
   transform="matrix(0.13899188,-0.99029352,-0.99030863,-0.1388842,0,0)"
   d="m -583.21506,-336.56155 a 6.1190233,6.1213484 0 0 1 5.63334,-5.89309" /><path
   style="fill:none;fill-opacity:1;stroke:#15366f;stroke-width:3;stroke-linecap:round;stroke-linejoin:round;stroke-miterlimit:4;stroke-dasharray:none;stroke-opacity:1;paint-order:stroke fill markers"
   id="path891-3-3-1"
   transform="matrix(0.13899187,-0.99029352,-0.99030863,-0.13888419,0,0)"
   d="m -607.34695,-345.62735 a 6.1190233,6.1213484 0 0 1 5.63333,-5.89309" /><path
   style="fill:none;fill-opacity:1;stroke:#15366f;stroke-width:3;stroke-linecap:round;stroke-linejoin:round;stroke-miterlimit:4;stroke-dasharray:none;stroke-opacity:1;paint-order:stroke fill markers"
   id="path891-3-3-1-1"
   transform="matrix(0.87673292,0.48097753,0.48126973,-0.87657256,0,0)"
   d="m 536.47289,-432.12378 a 6.1208353,6.1195369 0 0 1 5.635,-5.89135" /><path
   style="fill:none;fill-opacity:1;stroke:#15366f;stroke-width:3;stroke-linecap:round;stroke-linejoin:round;stroke-miterlimit:4;stroke-dasharray:none;stroke-opacity:1;paint-order:stroke fill markers"
   id="path891-3-3-1-0"
   transform="matrix(-0.98176396,0.19010397,0.19024881,0.98173591,0,0)"
   d="m -139.6125,666.08376 a 6.1213074,6.1190643 0 0 1 5.63544,-5.89089" /><path
   style="fill:none;fill-opacity:1;stroke:#15366f;stroke-width:3;stroke-linecap:round;stroke-linejoin:miter;stroke-miterlimit:4;stroke-dasharray:none;stroke-opacity:1"
   d="m 286.51744,642.46717 -5.7133,5.49003"
   id="path950-3-6-6" /><path
   style="fill:none;fill-opacity:1;stroke:#15366f;stroke-width:3;stroke-linecap:butt;stroke-linejoin:round;stroke-miterlimit:4;stroke-dasharray:none;stroke-opacity:1"
   d="m 293.04693,630.4289 c -3.53681,0 -6.65176,-0.10857 -6.52949,-0.10857"
   id="path950-3-3" /><path
   style="fill:none;fill-opacity:1;stroke:#15366f;stroke-width:3;stroke-linecap:butt;stroke-linejoin:round;stroke-miterlimit:4;stroke-dasharray:none;stroke-opacity:1"
   d="m 293.04693,640.61443 c -3.53681,0 -6.65176,-4e-5 -6.52949,0"
   id="path950-3-3-4" /><path
   style="fill:none;fill-opacity:1;stroke:#15366f;stroke-width:3;stroke-linecap:butt;stroke-linejoin:round;stroke-miterlimit:4;stroke-dasharray:none;stroke-opacity:1"
   d="m 293.04693,620.21784 c -3.53681,0 -6.65176,-4e-5 -6.52949,0"
   id="path950-3-3-4-5" /><path
   style="fill:none;fill-opacity:1;stroke:#15366f;stroke-width:3;stroke-linecap:butt;stroke-linejoin:round;stroke-miterlimit:4;stroke-dasharray:none;stroke-opacity:1"
   d="m 278.747,607.97989 c 0,3.09348 -4e-5,5.81799 0,5.71104"
   id="path950-3-3-4-5-7" /><path
   style="fill:none;fill-opacity:1;stroke:#15366f;stroke-width:3;stroke-linecap:butt;stroke-linejoin:round;stroke-miterlimit:4;stroke-dasharray:none;stroke-opacity:1"
   d="m 278.82797,654.48759 c 0,-3.5354 4e-5,-6.64913 0,-6.5269"
   id="path950-3-3-4-5-7-0" /><ellipse
   style="fill:none;fill-opacity:1;stroke:#15366f;stroke-width:1.5;stroke-linecap:round;stroke-linejoin:round;stroke-miterlimit:4;stroke-dasharray:none;stroke-opacity:1;paint-order:stroke fill markers"
   id="path891-3-3-1-1-8"
   transform="matrix(0.87673292,0.48097753,0.48126973,-0.87657256,0,0)"
   cx="568.04437"
   cy="-419.12997"
   rx="3.2644455"
   ry="3.2637529" /><ellipse
   style="fill:none;fill-opacity:1;stroke:#15366f;stroke-width:1.5;stroke-linecap:round;stroke-linejoin:round;stroke-miterlimit:4;stroke-dasharray:none;stroke-opacity:1;paint-order:stroke fill markers"
   id="path891-3-3-1-1-8-1"
   transform="matrix(0.87673292,0.48097753,0.48126973,-0.87657256,0,0)"
   cx="563.16803"
   cy="-410.24664"
   rx="3.2644455"
   ry="3.2637529" /><ellipse
   style="fill:none;fill-opacity:1;stroke:#15366f;stroke-width:1.5;stroke-linecap:round;stroke-linejoin:round;stroke-miterlimit:4;stroke-dasharray:none;stroke-opacity:1;paint-order:stroke fill markers"
   id="path891-3-3-1-1-8-7"
   transform="matrix(0.87673292,0.48097753,0.48126973,-0.87657256,0,0)"
   cx="558.22815"
   cy="-401.24762"
   rx="3.2644455"
   ry="3.2637529" /><ellipse
   style="fill:none;fill-opacity:1;stroke:#15366f;stroke-width:1.5;stroke-linecap:round;stroke-linejoin:round;stroke-miterlimit:4;stroke-dasharray:none;stroke-opacity:1;paint-order:stroke fill markers"
   id="path891-3-3-1-1-8-0"
   transform="matrix(0.87673292,0.48097753,0.48126973,-0.87657256,0,0)"
   cx="560.5296"
   cy="-441.86475"
   rx="3.2644455"
   ry="3.2637529" /><ellipse
   style="fill:none;fill-opacity:1;stroke:#15366f;stroke-width:1.5;stroke-linecap:round;stroke-linejoin:round;stroke-miterlimit:4;stroke-dasharray:none;stroke-opacity:1;paint-order:stroke fill markers"
   id="path891-3-3-1-1-8-7-5"
   transform="matrix(0.87673292,0.48097753,0.48126973,-0.87657256,0,0)"
   cx="535.73926"
   cy="-396.83743"
   rx="3.2644455"
   ry="3.2637529" /></g></svg>
