<?xml version="1.0" encoding="utf-8" standalone="no"?>
<!DOCTYPE svg PUBLIC "-//W3C//DTD SVG 1.1//EN"
  "http://www.w3.org/Graphics/SVG/1.1/DTD/svg11.dtd">
<!-- Created with matplotlib (https://matplotlib.org/) -->
<svg height="595.943274pt" version="1.1" viewBox="0 0 659.432813 595.943274" width="659.432813pt" xmlns="http://www.w3.org/2000/svg" xmlns:xlink="http://www.w3.org/1999/xlink">
 <defs>
  <style type="text/css">
*{stroke-linecap:butt;stroke-linejoin:round;}
  </style>
 </defs>
 <g id="figure_1">
  <g id="patch_1">
   <path d="M 0 595.943274 
L 659.432813 595.943274 
L 659.432813 0 
L 0 0 
z
" style="fill:#ffffff;"/>
  </g>
  <g id="axes_1">
   <g id="patch_2">
    <path d="M 46.0875 277.926048 
L 318.282622 277.926048 
L 318.282622 7.487024 
L 46.0875 7.487024 
z
" style="fill:#ffffff;"/>
   </g>
   <g id="matplotlib.axis_1">
    <g id="xtick_1">
     <g id="line2d_1">
      <path clip-path="url(#p30e9154b1b)" d="M 46.0875 277.926048 
L 46.0875 7.487024 
" style="fill:none;stroke:#b0b0b0;stroke-linecap:square;stroke-width:0.8;"/>
     </g>
     <g id="line2d_2">
      <defs>
       <path d="M 0 0 
L 0 -3.5 
" id="m8e68c11335" style="stroke:#000000;stroke-width:0.8;"/>
      </defs>
      <g>
       <use style="stroke:#000000;stroke-width:0.8;" x="46.0875" xlink:href="#m8e68c11335" y="277.926048"/>
      </g>
     </g>
     <g id="line2d_3">
      <defs>
       <path d="M 0 0 
L 0 3.5 
" id="m3319efc6de" style="stroke:#000000;stroke-width:0.8;"/>
      </defs>
      <g>
       <use style="stroke:#000000;stroke-width:0.8;" x="46.0875" xlink:href="#m3319efc6de" y="7.487024"/>
      </g>
     </g>
    </g>
    <g id="xtick_2">
     <g id="line2d_4">
      <path clip-path="url(#p30e9154b1b)" d="M 100.526524 277.926048 
L 100.526524 7.487024 
" style="fill:none;stroke:#b0b0b0;stroke-linecap:square;stroke-width:0.8;"/>
     </g>
     <g id="line2d_5">
      <g>
       <use style="stroke:#000000;stroke-width:0.8;" x="100.526524" xlink:href="#m8e68c11335" y="277.926048"/>
      </g>
     </g>
     <g id="line2d_6">
      <g>
       <use style="stroke:#000000;stroke-width:0.8;" x="100.526524" xlink:href="#m3319efc6de" y="7.487024"/>
      </g>
     </g>
    </g>
    <g id="xtick_3">
     <g id="line2d_7">
      <path clip-path="url(#p30e9154b1b)" d="M 154.965549 277.926048 
L 154.965549 7.487024 
" style="fill:none;stroke:#b0b0b0;stroke-linecap:square;stroke-width:0.8;"/>
     </g>
     <g id="line2d_8">
      <g>
       <use style="stroke:#000000;stroke-width:0.8;" x="154.965549" xlink:href="#m8e68c11335" y="277.926048"/>
      </g>
     </g>
     <g id="line2d_9">
      <g>
       <use style="stroke:#000000;stroke-width:0.8;" x="154.965549" xlink:href="#m3319efc6de" y="7.487024"/>
      </g>
     </g>
    </g>
    <g id="xtick_4">
     <g id="line2d_10">
      <path clip-path="url(#p30e9154b1b)" d="M 209.404573 277.926048 
L 209.404573 7.487024 
" style="fill:none;stroke:#b0b0b0;stroke-linecap:square;stroke-width:0.8;"/>
     </g>
     <g id="line2d_11">
      <g>
       <use style="stroke:#000000;stroke-width:0.8;" x="209.404573" xlink:href="#m8e68c11335" y="277.926048"/>
      </g>
     </g>
     <g id="line2d_12">
      <g>
       <use style="stroke:#000000;stroke-width:0.8;" x="209.404573" xlink:href="#m3319efc6de" y="7.487024"/>
      </g>
     </g>
    </g>
    <g id="xtick_5">
     <g id="line2d_13">
      <path clip-path="url(#p30e9154b1b)" d="M 263.843598 277.926048 
L 263.843598 7.487024 
" style="fill:none;stroke:#b0b0b0;stroke-linecap:square;stroke-width:0.8;"/>
     </g>
     <g id="line2d_14">
      <g>
       <use style="stroke:#000000;stroke-width:0.8;" x="263.843598" xlink:href="#m8e68c11335" y="277.926048"/>
      </g>
     </g>
     <g id="line2d_15">
      <g>
       <use style="stroke:#000000;stroke-width:0.8;" x="263.843598" xlink:href="#m3319efc6de" y="7.487024"/>
      </g>
     </g>
    </g>
    <g id="xtick_6">
     <g id="line2d_16">
      <path clip-path="url(#p30e9154b1b)" d="M 318.282622 277.926048 
L 318.282622 7.487024 
" style="fill:none;stroke:#b0b0b0;stroke-linecap:square;stroke-width:0.8;"/>
     </g>
     <g id="line2d_17">
      <g>
       <use style="stroke:#000000;stroke-width:0.8;" x="318.282622" xlink:href="#m8e68c11335" y="277.926048"/>
      </g>
     </g>
     <g id="line2d_18">
      <g>
       <use style="stroke:#000000;stroke-width:0.8;" x="318.282622" xlink:href="#m3319efc6de" y="7.487024"/>
      </g>
     </g>
    </g>
   </g>
   <g id="matplotlib.axis_2">
    <g id="ytick_1">
     <g id="line2d_19">
      <path clip-path="url(#p30e9154b1b)" d="M 46.0875 265.633365 
L 318.282622 265.633365 
" style="fill:none;stroke:#b0b0b0;stroke-linecap:square;stroke-width:0.8;"/>
     </g>
     <g id="line2d_20">
      <defs>
       <path d="M 0 0 
L 3.5 0 
" id="m59b43fa4ed" style="stroke:#000000;stroke-width:0.8;"/>
      </defs>
      <g>
       <use style="stroke:#000000;stroke-width:0.8;" x="46.0875" xlink:href="#m59b43fa4ed" y="265.633365"/>
      </g>
     </g>
     <g id="text_1">
      <!-- 0 -->
      <defs>
       <path d="M 31.78125 66.40625 
Q 24.171875 66.40625 20.328125 58.90625 
Q 16.5 51.421875 16.5 36.375 
Q 16.5 21.390625 20.328125 13.890625 
Q 24.171875 6.390625 31.78125 6.390625 
Q 39.453125 6.390625 43.28125 13.890625 
Q 47.125 21.390625 47.125 36.375 
Q 47.125 51.421875 43.28125 58.90625 
Q 39.453125 66.40625 31.78125 66.40625 
z
M 31.78125 74.21875 
Q 44.046875 74.21875 50.515625 64.515625 
Q 56.984375 54.828125 56.984375 36.375 
Q 56.984375 17.96875 50.515625 8.265625 
Q 44.046875 -1.421875 31.78125 -1.421875 
Q 19.53125 -1.421875 13.0625 8.265625 
Q 6.59375 17.96875 6.59375 36.375 
Q 6.59375 54.828125 13.0625 64.515625 
Q 19.53125 74.21875 31.78125 74.21875 
z
" id="DejaVuSans-48"/>
      </defs>
      <g transform="translate(36.225 269.432584)scale(0.1 -0.1)">
       <use xlink:href="#DejaVuSans-48"/>
      </g>
     </g>
    </g>
    <g id="ytick_2">
     <g id="line2d_21">
      <path clip-path="url(#p30e9154b1b)" d="M 46.0875 230.973267 
L 318.282622 230.973267 
" style="fill:none;stroke:#b0b0b0;stroke-linecap:square;stroke-width:0.8;"/>
     </g>
     <g id="line2d_22">
      <g>
       <use style="stroke:#000000;stroke-width:0.8;" x="46.0875" xlink:href="#m59b43fa4ed" y="230.973267"/>
      </g>
     </g>
     <g id="text_2">
      <!-- 25 -->
      <defs>
       <path d="M 19.1875 8.296875 
L 53.609375 8.296875 
L 53.609375 0 
L 7.328125 0 
L 7.328125 8.296875 
Q 12.9375 14.109375 22.625 23.890625 
Q 32.328125 33.6875 34.8125 36.53125 
Q 39.546875 41.84375 41.421875 45.53125 
Q 43.3125 49.21875 43.3125 52.78125 
Q 43.3125 58.59375 39.234375 62.25 
Q 35.15625 65.921875 28.609375 65.921875 
Q 23.96875 65.921875 18.8125 64.3125 
Q 13.671875 62.703125 7.8125 59.421875 
L 7.8125 69.390625 
Q 13.765625 71.78125 18.9375 73 
Q 24.125 74.21875 28.421875 74.21875 
Q 39.75 74.21875 46.484375 68.546875 
Q 53.21875 62.890625 53.21875 53.421875 
Q 53.21875 48.921875 51.53125 44.890625 
Q 49.859375 40.875 45.40625 35.40625 
Q 44.1875 33.984375 37.640625 27.21875 
Q 31.109375 20.453125 19.1875 8.296875 
z
" id="DejaVuSans-50"/>
       <path d="M 10.796875 72.90625 
L 49.515625 72.90625 
L 49.515625 64.59375 
L 19.828125 64.59375 
L 19.828125 46.734375 
Q 21.96875 47.46875 24.109375 47.828125 
Q 26.265625 48.1875 28.421875 48.1875 
Q 40.625 48.1875 47.75 41.5 
Q 54.890625 34.8125 54.890625 23.390625 
Q 54.890625 11.625 47.5625 5.09375 
Q 40.234375 -1.421875 26.90625 -1.421875 
Q 22.3125 -1.421875 17.546875 -0.640625 
Q 12.796875 0.140625 7.71875 1.703125 
L 7.71875 11.625 
Q 12.109375 9.234375 16.796875 8.0625 
Q 21.484375 6.890625 26.703125 6.890625 
Q 35.15625 6.890625 40.078125 11.328125 
Q 45.015625 15.765625 45.015625 23.390625 
Q 45.015625 31 40.078125 35.4375 
Q 35.15625 39.890625 26.703125 39.890625 
Q 22.75 39.890625 18.8125 39.015625 
Q 14.890625 38.140625 10.796875 36.28125 
z
" id="DejaVuSans-53"/>
      </defs>
      <g transform="translate(29.8625 234.772486)scale(0.1 -0.1)">
       <use xlink:href="#DejaVuSans-50"/>
       <use x="63.623047" xlink:href="#DejaVuSans-53"/>
      </g>
     </g>
    </g>
    <g id="ytick_3">
     <g id="line2d_23">
      <path clip-path="url(#p30e9154b1b)" d="M 46.0875 196.313168 
L 318.282622 196.313168 
" style="fill:none;stroke:#b0b0b0;stroke-linecap:square;stroke-width:0.8;"/>
     </g>
     <g id="line2d_24">
      <g>
       <use style="stroke:#000000;stroke-width:0.8;" x="46.0875" xlink:href="#m59b43fa4ed" y="196.313168"/>
      </g>
     </g>
     <g id="text_3">
      <!-- 50 -->
      <g transform="translate(29.8625 200.112387)scale(0.1 -0.1)">
       <use xlink:href="#DejaVuSans-53"/>
       <use x="63.623047" xlink:href="#DejaVuSans-48"/>
      </g>
     </g>
    </g>
    <g id="ytick_4">
     <g id="line2d_25">
      <path clip-path="url(#p30e9154b1b)" d="M 46.0875 161.65307 
L 318.282622 161.65307 
" style="fill:none;stroke:#b0b0b0;stroke-linecap:square;stroke-width:0.8;"/>
     </g>
     <g id="line2d_26">
      <g>
       <use style="stroke:#000000;stroke-width:0.8;" x="46.0875" xlink:href="#m59b43fa4ed" y="161.65307"/>
      </g>
     </g>
     <g id="text_4">
      <!-- 75 -->
      <defs>
       <path d="M 8.203125 72.90625 
L 55.078125 72.90625 
L 55.078125 68.703125 
L 28.609375 0 
L 18.3125 0 
L 43.21875 64.59375 
L 8.203125 64.59375 
z
" id="DejaVuSans-55"/>
      </defs>
      <g transform="translate(29.8625 165.452289)scale(0.1 -0.1)">
       <use xlink:href="#DejaVuSans-55"/>
       <use x="63.623047" xlink:href="#DejaVuSans-53"/>
      </g>
     </g>
    </g>
    <g id="ytick_5">
     <g id="line2d_27">
      <path clip-path="url(#p30e9154b1b)" d="M 46.0875 126.992972 
L 318.282622 126.992972 
" style="fill:none;stroke:#b0b0b0;stroke-linecap:square;stroke-width:0.8;"/>
     </g>
     <g id="line2d_28">
      <g>
       <use style="stroke:#000000;stroke-width:0.8;" x="46.0875" xlink:href="#m59b43fa4ed" y="126.992972"/>
      </g>
     </g>
     <g id="text_5">
      <!-- 100 -->
      <defs>
       <path d="M 12.40625 8.296875 
L 28.515625 8.296875 
L 28.515625 63.921875 
L 10.984375 60.40625 
L 10.984375 69.390625 
L 28.421875 72.90625 
L 38.28125 72.90625 
L 38.28125 8.296875 
L 54.390625 8.296875 
L 54.390625 0 
L 12.40625 0 
z
" id="DejaVuSans-49"/>
      </defs>
      <g transform="translate(23.5 130.792191)scale(0.1 -0.1)">
       <use xlink:href="#DejaVuSans-49"/>
       <use x="63.623047" xlink:href="#DejaVuSans-48"/>
       <use x="127.246094" xlink:href="#DejaVuSans-48"/>
      </g>
     </g>
    </g>
    <g id="ytick_6">
     <g id="line2d_29">
      <path clip-path="url(#p30e9154b1b)" d="M 46.0875 92.332873 
L 318.282622 92.332873 
" style="fill:none;stroke:#b0b0b0;stroke-linecap:square;stroke-width:0.8;"/>
     </g>
     <g id="line2d_30">
      <g>
       <use style="stroke:#000000;stroke-width:0.8;" x="46.0875" xlink:href="#m59b43fa4ed" y="92.332873"/>
      </g>
     </g>
     <g id="text_6">
      <!-- 125 -->
      <g transform="translate(23.5 96.132092)scale(0.1 -0.1)">
       <use xlink:href="#DejaVuSans-49"/>
       <use x="63.623047" xlink:href="#DejaVuSans-50"/>
       <use x="127.246094" xlink:href="#DejaVuSans-53"/>
      </g>
     </g>
    </g>
    <g id="ytick_7">
     <g id="line2d_31">
      <path clip-path="url(#p30e9154b1b)" d="M 46.0875 57.672775 
L 318.282622 57.672775 
" style="fill:none;stroke:#b0b0b0;stroke-linecap:square;stroke-width:0.8;"/>
     </g>
     <g id="line2d_32">
      <g>
       <use style="stroke:#000000;stroke-width:0.8;" x="46.0875" xlink:href="#m59b43fa4ed" y="57.672775"/>
      </g>
     </g>
     <g id="text_7">
      <!-- 150 -->
      <g transform="translate(23.5 61.471994)scale(0.1 -0.1)">
       <use xlink:href="#DejaVuSans-49"/>
       <use x="63.623047" xlink:href="#DejaVuSans-53"/>
       <use x="127.246094" xlink:href="#DejaVuSans-48"/>
      </g>
     </g>
    </g>
    <g id="ytick_8">
     <g id="line2d_33">
      <path clip-path="url(#p30e9154b1b)" d="M 46.0875 23.012677 
L 318.282622 23.012677 
" style="fill:none;stroke:#b0b0b0;stroke-linecap:square;stroke-width:0.8;"/>
     </g>
     <g id="line2d_34">
      <g>
       <use style="stroke:#000000;stroke-width:0.8;" x="46.0875" xlink:href="#m59b43fa4ed" y="23.012677"/>
      </g>
     </g>
     <g id="text_8">
      <!-- 175 -->
      <g transform="translate(23.5 26.811896)scale(0.1 -0.1)">
       <use xlink:href="#DejaVuSans-49"/>
       <use x="63.623047" xlink:href="#DejaVuSans-55"/>
       <use x="127.246094" xlink:href="#DejaVuSans-53"/>
      </g>
     </g>
    </g>
    <g id="text_9">
     <!-- $\omega_\mathrm{me} / \frac{1}{\mathrm{s}}$ -->
     <defs>
      <path d="M 21.390625 -1.421875 
Q 1.125 -1.421875 6.78125 27.59375 
Q 8.984375 39.0625 19.625 54.6875 
L 29.296875 54.6875 
Q 19.234375 39.0625 17 27.34375 
Q 12.796875 6.203125 23.734375 6.203125 
Q 33.84375 6.203125 38.71875 32.46875 
L 47.015625 32.46875 
Q 41.703125 6.0625 51.8125 6.203125 
Q 62.703125 6.296875 66.796875 27.34375 
Q 69.046875 39.0625 65.140625 54.6875 
L 74.8125 54.6875 
Q 79.296875 39.0625 77.09375 27.59375 
Q 71.53125 -1.46875 51.21875 -1.421875 
Q 37.9375 -1.375 39.109375 13.1875 
Q 34.28125 -1.421875 21.390625 -1.421875 
z
" id="DejaVuSans-Oblique-969"/>
      <path d="M 52 44.1875 
Q 55.375 50.25 60.0625 53.125 
Q 64.75 56 71.09375 56 
Q 79.640625 56 84.28125 50.015625 
Q 88.921875 44.046875 88.921875 33.015625 
L 88.921875 0 
L 79.890625 0 
L 79.890625 32.71875 
Q 79.890625 40.578125 77.09375 44.375 
Q 74.3125 48.1875 68.609375 48.1875 
Q 61.625 48.1875 57.5625 43.546875 
Q 53.515625 38.921875 53.515625 30.90625 
L 53.515625 0 
L 44.484375 0 
L 44.484375 32.71875 
Q 44.484375 40.625 41.703125 44.40625 
Q 38.921875 48.1875 33.109375 48.1875 
Q 26.21875 48.1875 22.15625 43.53125 
Q 18.109375 38.875 18.109375 30.90625 
L 18.109375 0 
L 9.078125 0 
L 9.078125 54.6875 
L 18.109375 54.6875 
L 18.109375 46.1875 
Q 21.1875 51.21875 25.484375 53.609375 
Q 29.78125 56 35.6875 56 
Q 41.65625 56 45.828125 52.96875 
Q 50 49.953125 52 44.1875 
z
" id="DejaVuSans-109"/>
      <path d="M 56.203125 29.59375 
L 56.203125 25.203125 
L 14.890625 25.203125 
Q 15.484375 15.921875 20.484375 11.0625 
Q 25.484375 6.203125 34.421875 6.203125 
Q 39.59375 6.203125 44.453125 7.46875 
Q 49.3125 8.734375 54.109375 11.28125 
L 54.109375 2.78125 
Q 49.265625 0.734375 44.1875 -0.34375 
Q 39.109375 -1.421875 33.890625 -1.421875 
Q 20.796875 -1.421875 13.15625 6.1875 
Q 5.515625 13.8125 5.515625 26.8125 
Q 5.515625 40.234375 12.765625 48.109375 
Q 20.015625 56 32.328125 56 
Q 43.359375 56 49.78125 48.890625 
Q 56.203125 41.796875 56.203125 29.59375 
z
M 47.21875 32.234375 
Q 47.125 39.59375 43.09375 43.984375 
Q 39.0625 48.390625 32.421875 48.390625 
Q 24.90625 48.390625 20.390625 44.140625 
Q 15.875 39.890625 15.1875 32.171875 
z
" id="DejaVuSans-101"/>
      <path d="M 25.390625 72.90625 
L 33.6875 72.90625 
L 8.296875 -9.28125 
L 0 -9.28125 
z
" id="DejaVuSans-47"/>
      <path d="M 44.28125 53.078125 
L 44.28125 44.578125 
Q 40.484375 46.53125 36.375 47.5 
Q 32.28125 48.484375 27.875 48.484375 
Q 21.1875 48.484375 17.84375 46.4375 
Q 14.5 44.390625 14.5 40.28125 
Q 14.5 37.15625 16.890625 35.375 
Q 19.28125 33.59375 26.515625 31.984375 
L 29.59375 31.296875 
Q 39.15625 29.25 43.1875 25.515625 
Q 47.21875 21.78125 47.21875 15.09375 
Q 47.21875 7.46875 41.1875 3.015625 
Q 35.15625 -1.421875 24.609375 -1.421875 
Q 20.21875 -1.421875 15.453125 -0.5625 
Q 10.6875 0.296875 5.421875 2 
L 5.421875 11.28125 
Q 10.40625 8.6875 15.234375 7.390625 
Q 20.0625 6.109375 24.8125 6.109375 
Q 31.15625 6.109375 34.5625 8.28125 
Q 37.984375 10.453125 37.984375 14.40625 
Q 37.984375 18.0625 35.515625 20.015625 
Q 33.0625 21.96875 24.703125 23.78125 
L 21.578125 24.515625 
Q 13.234375 26.265625 9.515625 29.90625 
Q 5.8125 33.546875 5.8125 39.890625 
Q 5.8125 47.609375 11.28125 51.796875 
Q 16.75 56 26.8125 56 
Q 31.78125 56 36.171875 55.265625 
Q 40.578125 54.546875 44.28125 53.078125 
z
" id="DejaVuSans-115"/>
     </defs>
     <g transform="translate(16.7 157.156536)rotate(-90)scale(0.1 -0.1)">
      <use transform="translate(0 0.16875)" xlink:href="#DejaVuSans-Oblique-969"/>
      <use transform="translate(83.740234 -16.2375)scale(0.7)" xlink:href="#DejaVuSans-109"/>
      <use transform="translate(151.928711 -16.2375)scale(0.7)" xlink:href="#DejaVuSans-101"/>
      <use transform="translate(197.729492 0.16875)" xlink:href="#DejaVuSans-47"/>
      <use transform="translate(231.420898 43.965625)scale(0.7)" xlink:href="#DejaVuSans-49"/>
      <use transform="translate(235.420898 -26.484375)scale(0.7)" xlink:href="#DejaVuSans-115"/>
      <path d="M 231.420898 18.965625 
L 231.420898 25.215625 
L 275.957031 25.215625 
L 275.957031 18.965625 
L 231.420898 18.965625 
z
"/>
     </g>
    </g>
   </g>
   <g id="line2d_35">
    <path clip-path="url(#p30e9154b1b)" d="M 46.0875 265.633365 
L 49.898232 265.545912 
L 51.259207 265.293126 
L 52.347988 264.840516 
L 53.164573 264.274497 
L 53.981159 263.446466 
L 54.797744 262.289372 
L 55.614329 260.73272 
L 56.430915 258.704869 
L 57.2475 256.135537 
L 58.064085 252.958437 
L 59.152866 247.675107 
L 60.241646 241.091666 
L 61.330427 233.132339 
L 62.691402 221.209241 
L 64.052378 207.154402 
L 65.685549 187.756285 
L 67.590915 162.390237 
L 74.123598 72.444983 
L 75.756768 54.405491 
L 77.117744 41.989201 
L 78.206524 33.977346 
L 79.295305 27.760506 
L 80.11189 24.288884 
L 80.928476 21.824646 
L 81.472866 20.726965 
L 82.017256 20.050626 
L 82.561646 19.779707 
L 83.106037 19.89565 
L 83.650427 20.37754 
L 84.194817 21.20237 
L 85.011402 23.02795 
L 85.827988 25.479196 
L 86.916768 29.555583 
L 88.277744 35.619303 
L 90.7275 47.862793 
L 93.177256 59.728516 
L 94.538232 65.407448 
L 95.899207 70.113272 
L 96.987988 73.068975 
L 97.804573 74.783688 
L 98.621159 76.061452 
L 99.437744 76.907433 
L 99.982134 77.238428 
L 100.526524 77.390382 
L 101.070915 77.37136 
L 101.615305 77.190819 
L 102.43189 76.640799 
L 103.248476 75.79181 
L 104.337256 74.271107 
L 105.698232 71.900656 
L 107.875793 67.526047 
L 110.869939 61.576272 
L 112.50311 58.813779 
L 113.864085 56.886678 
L 115.225061 55.319141 
L 116.586037 54.094303 
L 117.947012 53.170783 
L 119.307988 52.49134 
L 120.941159 51.907042 
L 123.66311 51.212942 
L 127.201646 50.288305 
L 129.923598 49.33224 
L 133.734329 47.70973 
L 137.545061 46.157989 
L 139.994817 45.415493 
L 142.172378 45.001926 
L 144.349939 44.84063 
L 146.5275 44.920522 
L 148.977256 45.255382 
L 151.971402 45.916132 
L 163.675793 48.790287 
L 166.942134 49.241351 
L 170.480671 49.499723 
L 174.291402 49.543156 
L 178.646524 49.361145 
L 184.362622 48.881131 
L 199.605549 47.47594 
L 205.321646 47.25225 
L 211.037744 47.25254 
L 218.387012 47.488041 
L 234.990915 48.088476 
L 243.701159 48.124158 
L 257.03872 47.914595 
L 272.281646 47.744049 
L 288.613354 47.821684 
L 312.294329 47.900808 
L 318.010427 47.885172 
L 318.010427 47.885172 
" style="fill:none;stroke:#1f77b4;stroke-linecap:square;stroke-width:1.5;"/>
   </g>
   <g id="patch_3">
    <path d="M 46.0875 277.926048 
L 46.0875 7.487024 
" style="fill:none;stroke:#000000;stroke-linecap:square;stroke-linejoin:miter;"/>
   </g>
   <g id="patch_4">
    <path d="M 318.282622 277.926048 
L 318.282622 7.487024 
" style="fill:none;stroke:#000000;stroke-linecap:square;stroke-linejoin:miter;"/>
   </g>
   <g id="patch_5">
    <path d="M 46.0875 277.926048 
L 318.282622 277.926048 
" style="fill:none;stroke:#000000;stroke-linecap:square;stroke-linejoin:miter;"/>
   </g>
   <g id="patch_6">
    <path d="M 46.0875 7.487024 
L 318.282622 7.487024 
" style="fill:none;stroke:#000000;stroke-linecap:square;stroke-linejoin:miter;"/>
   </g>
  </g>
  <g id="axes_2">
   <g id="patch_7">
    <path d="M 46.0875 561.887024 
L 318.282622 561.887024 
L 318.282622 291.447999 
L 46.0875 291.447999 
z
" style="fill:#ffffff;"/>
   </g>
   <g id="matplotlib.axis_3">
    <g id="xtick_7">
     <g id="line2d_36">
      <path clip-path="url(#p29f8879d3a)" d="M 46.0875 561.887024 
L 46.0875 291.447999 
" style="fill:none;stroke:#b0b0b0;stroke-linecap:square;stroke-width:0.8;"/>
     </g>
     <g id="line2d_37">
      <g>
       <use style="stroke:#000000;stroke-width:0.8;" x="46.0875" xlink:href="#m8e68c11335" y="561.887024"/>
      </g>
     </g>
     <g id="line2d_38">
      <g>
       <use style="stroke:#000000;stroke-width:0.8;" x="46.0875" xlink:href="#m3319efc6de" y="291.447999"/>
      </g>
     </g>
     <g id="text_10">
      <!-- 0 -->
      <g transform="translate(39.725 572.985461)scale(0.1 -0.1)">
       <use xlink:href="#DejaVuSans-48"/>
      </g>
     </g>
    </g>
    <g id="xtick_8">
     <g id="line2d_39">
      <path clip-path="url(#p29f8879d3a)" d="M 100.526524 561.887024 
L 100.526524 291.447999 
" style="fill:none;stroke:#b0b0b0;stroke-linecap:square;stroke-width:0.8;"/>
     </g>
     <g id="line2d_40">
      <g>
       <use style="stroke:#000000;stroke-width:0.8;" x="100.526524" xlink:href="#m8e68c11335" y="561.887024"/>
      </g>
     </g>
     <g id="line2d_41">
      <g>
       <use style="stroke:#000000;stroke-width:0.8;" x="100.526524" xlink:href="#m3319efc6de" y="291.447999"/>
      </g>
     </g>
     <g id="text_11">
      <!-- 20 -->
      <g transform="translate(87.801524 572.985461)scale(0.1 -0.1)">
       <use xlink:href="#DejaVuSans-50"/>
       <use x="63.623047" xlink:href="#DejaVuSans-48"/>
      </g>
     </g>
    </g>
    <g id="xtick_9">
     <g id="line2d_42">
      <path clip-path="url(#p29f8879d3a)" d="M 154.965549 561.887024 
L 154.965549 291.447999 
" style="fill:none;stroke:#b0b0b0;stroke-linecap:square;stroke-width:0.8;"/>
     </g>
     <g id="line2d_43">
      <g>
       <use style="stroke:#000000;stroke-width:0.8;" x="154.965549" xlink:href="#m8e68c11335" y="561.887024"/>
      </g>
     </g>
     <g id="line2d_44">
      <g>
       <use style="stroke:#000000;stroke-width:0.8;" x="154.965549" xlink:href="#m3319efc6de" y="291.447999"/>
      </g>
     </g>
     <g id="text_12">
      <!-- 40 -->
      <defs>
       <path d="M 37.796875 64.3125 
L 12.890625 25.390625 
L 37.796875 25.390625 
z
M 35.203125 72.90625 
L 47.609375 72.90625 
L 47.609375 25.390625 
L 58.015625 25.390625 
L 58.015625 17.1875 
L 47.609375 17.1875 
L 47.609375 0 
L 37.796875 0 
L 37.796875 17.1875 
L 4.890625 17.1875 
L 4.890625 26.703125 
z
" id="DejaVuSans-52"/>
      </defs>
      <g transform="translate(142.240549 572.985461)scale(0.1 -0.1)">
       <use xlink:href="#DejaVuSans-52"/>
       <use x="63.623047" xlink:href="#DejaVuSans-48"/>
      </g>
     </g>
    </g>
    <g id="xtick_10">
     <g id="line2d_45">
      <path clip-path="url(#p29f8879d3a)" d="M 209.404573 561.887024 
L 209.404573 291.447999 
" style="fill:none;stroke:#b0b0b0;stroke-linecap:square;stroke-width:0.8;"/>
     </g>
     <g id="line2d_46">
      <g>
       <use style="stroke:#000000;stroke-width:0.8;" x="209.404573" xlink:href="#m8e68c11335" y="561.887024"/>
      </g>
     </g>
     <g id="line2d_47">
      <g>
       <use style="stroke:#000000;stroke-width:0.8;" x="209.404573" xlink:href="#m3319efc6de" y="291.447999"/>
      </g>
     </g>
     <g id="text_13">
      <!-- 60 -->
      <defs>
       <path d="M 33.015625 40.375 
Q 26.375 40.375 22.484375 35.828125 
Q 18.609375 31.296875 18.609375 23.390625 
Q 18.609375 15.53125 22.484375 10.953125 
Q 26.375 6.390625 33.015625 6.390625 
Q 39.65625 6.390625 43.53125 10.953125 
Q 47.40625 15.53125 47.40625 23.390625 
Q 47.40625 31.296875 43.53125 35.828125 
Q 39.65625 40.375 33.015625 40.375 
z
M 52.59375 71.296875 
L 52.59375 62.3125 
Q 48.875 64.0625 45.09375 64.984375 
Q 41.3125 65.921875 37.59375 65.921875 
Q 27.828125 65.921875 22.671875 59.328125 
Q 17.53125 52.734375 16.796875 39.40625 
Q 19.671875 43.65625 24.015625 45.921875 
Q 28.375 48.1875 33.59375 48.1875 
Q 44.578125 48.1875 50.953125 41.515625 
Q 57.328125 34.859375 57.328125 23.390625 
Q 57.328125 12.15625 50.6875 5.359375 
Q 44.046875 -1.421875 33.015625 -1.421875 
Q 20.359375 -1.421875 13.671875 8.265625 
Q 6.984375 17.96875 6.984375 36.375 
Q 6.984375 53.65625 15.1875 63.9375 
Q 23.390625 74.21875 37.203125 74.21875 
Q 40.921875 74.21875 44.703125 73.484375 
Q 48.484375 72.75 52.59375 71.296875 
z
" id="DejaVuSans-54"/>
      </defs>
      <g transform="translate(196.679573 572.985461)scale(0.1 -0.1)">
       <use xlink:href="#DejaVuSans-54"/>
       <use x="63.623047" xlink:href="#DejaVuSans-48"/>
      </g>
     </g>
    </g>
    <g id="xtick_11">
     <g id="line2d_48">
      <path clip-path="url(#p29f8879d3a)" d="M 263.843598 561.887024 
L 263.843598 291.447999 
" style="fill:none;stroke:#b0b0b0;stroke-linecap:square;stroke-width:0.8;"/>
     </g>
     <g id="line2d_49">
      <g>
       <use style="stroke:#000000;stroke-width:0.8;" x="263.843598" xlink:href="#m8e68c11335" y="561.887024"/>
      </g>
     </g>
     <g id="line2d_50">
      <g>
       <use style="stroke:#000000;stroke-width:0.8;" x="263.843598" xlink:href="#m3319efc6de" y="291.447999"/>
      </g>
     </g>
     <g id="text_14">
      <!-- 80 -->
      <defs>
       <path d="M 31.78125 34.625 
Q 24.75 34.625 20.71875 30.859375 
Q 16.703125 27.09375 16.703125 20.515625 
Q 16.703125 13.921875 20.71875 10.15625 
Q 24.75 6.390625 31.78125 6.390625 
Q 38.8125 6.390625 42.859375 10.171875 
Q 46.921875 13.96875 46.921875 20.515625 
Q 46.921875 27.09375 42.890625 30.859375 
Q 38.875 34.625 31.78125 34.625 
z
M 21.921875 38.8125 
Q 15.578125 40.375 12.03125 44.71875 
Q 8.5 49.078125 8.5 55.328125 
Q 8.5 64.0625 14.71875 69.140625 
Q 20.953125 74.21875 31.78125 74.21875 
Q 42.671875 74.21875 48.875 69.140625 
Q 55.078125 64.0625 55.078125 55.328125 
Q 55.078125 49.078125 51.53125 44.71875 
Q 48 40.375 41.703125 38.8125 
Q 48.828125 37.15625 52.796875 32.3125 
Q 56.78125 27.484375 56.78125 20.515625 
Q 56.78125 9.90625 50.3125 4.234375 
Q 43.84375 -1.421875 31.78125 -1.421875 
Q 19.734375 -1.421875 13.25 4.234375 
Q 6.78125 9.90625 6.78125 20.515625 
Q 6.78125 27.484375 10.78125 32.3125 
Q 14.796875 37.15625 21.921875 38.8125 
z
M 18.3125 54.390625 
Q 18.3125 48.734375 21.84375 45.5625 
Q 25.390625 42.390625 31.78125 42.390625 
Q 38.140625 42.390625 41.71875 45.5625 
Q 45.3125 48.734375 45.3125 54.390625 
Q 45.3125 60.0625 41.71875 63.234375 
Q 38.140625 66.40625 31.78125 66.40625 
Q 25.390625 66.40625 21.84375 63.234375 
Q 18.3125 60.0625 18.3125 54.390625 
z
" id="DejaVuSans-56"/>
      </defs>
      <g transform="translate(251.118598 572.985461)scale(0.1 -0.1)">
       <use xlink:href="#DejaVuSans-56"/>
       <use x="63.623047" xlink:href="#DejaVuSans-48"/>
      </g>
     </g>
    </g>
    <g id="xtick_12">
     <g id="line2d_51">
      <path clip-path="url(#p29f8879d3a)" d="M 318.282622 561.887024 
L 318.282622 291.447999 
" style="fill:none;stroke:#b0b0b0;stroke-linecap:square;stroke-width:0.8;"/>
     </g>
     <g id="line2d_52">
      <g>
       <use style="stroke:#000000;stroke-width:0.8;" x="318.282622" xlink:href="#m8e68c11335" y="561.887024"/>
      </g>
     </g>
     <g id="line2d_53">
      <g>
       <use style="stroke:#000000;stroke-width:0.8;" x="318.282622" xlink:href="#m3319efc6de" y="291.447999"/>
      </g>
     </g>
     <g id="text_15">
      <!-- 100 -->
      <g transform="translate(299.195122 572.985461)scale(0.1 -0.1)">
       <use xlink:href="#DejaVuSans-49"/>
       <use x="63.623047" xlink:href="#DejaVuSans-48"/>
       <use x="127.246094" xlink:href="#DejaVuSans-48"/>
      </g>
     </g>
    </g>
    <g id="text_16">
     <!-- $t / \mathrm{ms}$ -->
     <defs>
      <path d="M 42.28125 54.6875 
L 40.921875 47.703125 
L 23 47.703125 
L 17.1875 18.015625 
Q 16.890625 16.359375 16.75 15.234375 
Q 16.609375 14.109375 16.609375 13.484375 
Q 16.609375 10.359375 18.484375 8.9375 
Q 20.359375 7.515625 24.515625 7.515625 
L 33.59375 7.515625 
L 32.078125 0 
L 23.484375 0 
Q 15.484375 0 11.546875 3.125 
Q 7.625 6.25 7.625 12.59375 
Q 7.625 13.71875 7.765625 15.0625 
Q 7.90625 16.40625 8.203125 18.015625 
L 14.015625 47.703125 
L 6.390625 47.703125 
L 7.8125 54.6875 
L 15.28125 54.6875 
L 18.3125 70.21875 
L 27.296875 70.21875 
L 24.3125 54.6875 
z
" id="DejaVuSans-Oblique-116"/>
     </defs>
     <g transform="translate(171.035061 586.663586)scale(0.1 -0.1)">
      <use transform="translate(0 0.09375)" xlink:href="#DejaVuSans-Oblique-116"/>
      <use transform="translate(39.208984 0.09375)" xlink:href="#DejaVuSans-47"/>
      <use transform="translate(72.900391 0.09375)" xlink:href="#DejaVuSans-109"/>
      <use transform="translate(170.3125 0.09375)" xlink:href="#DejaVuSans-115"/>
     </g>
    </g>
   </g>
   <g id="matplotlib.axis_4">
    <g id="ytick_9">
     <g id="line2d_54">
      <path clip-path="url(#p29f8879d3a)" d="M 46.0875 543.7578 
L 318.282622 543.7578 
" style="fill:none;stroke:#b0b0b0;stroke-linecap:square;stroke-width:0.8;"/>
     </g>
     <g id="line2d_55">
      <g>
       <use style="stroke:#000000;stroke-width:0.8;" x="46.0875" xlink:href="#m59b43fa4ed" y="543.7578"/>
      </g>
     </g>
     <g id="text_17">
      <!-- −10 -->
      <defs>
       <path d="M 10.59375 35.5 
L 73.1875 35.5 
L 73.1875 27.203125 
L 10.59375 27.203125 
z
" id="DejaVuSans-8722"/>
      </defs>
      <g transform="translate(21.482813 547.557019)scale(0.1 -0.1)">
       <use xlink:href="#DejaVuSans-8722"/>
       <use x="83.789062" xlink:href="#DejaVuSans-49"/>
       <use x="147.412109" xlink:href="#DejaVuSans-48"/>
      </g>
     </g>
    </g>
    <g id="ytick_10">
     <g id="line2d_56">
      <path clip-path="url(#p29f8879d3a)" d="M 46.0875 485.286044 
L 318.282622 485.286044 
" style="fill:none;stroke:#b0b0b0;stroke-linecap:square;stroke-width:0.8;"/>
     </g>
     <g id="line2d_57">
      <g>
       <use style="stroke:#000000;stroke-width:0.8;" x="46.0875" xlink:href="#m59b43fa4ed" y="485.286044"/>
      </g>
     </g>
     <g id="text_18">
      <!-- 0 -->
      <g transform="translate(36.225 489.085263)scale(0.1 -0.1)">
       <use xlink:href="#DejaVuSans-48"/>
      </g>
     </g>
    </g>
    <g id="ytick_11">
     <g id="line2d_58">
      <path clip-path="url(#p29f8879d3a)" d="M 46.0875 426.814289 
L 318.282622 426.814289 
" style="fill:none;stroke:#b0b0b0;stroke-linecap:square;stroke-width:0.8;"/>
     </g>
     <g id="line2d_59">
      <g>
       <use style="stroke:#000000;stroke-width:0.8;" x="46.0875" xlink:href="#m59b43fa4ed" y="426.814289"/>
      </g>
     </g>
     <g id="text_19">
      <!-- 10 -->
      <g transform="translate(29.8625 430.613508)scale(0.1 -0.1)">
       <use xlink:href="#DejaVuSans-49"/>
       <use x="63.623047" xlink:href="#DejaVuSans-48"/>
      </g>
     </g>
    </g>
    <g id="ytick_12">
     <g id="line2d_60">
      <path clip-path="url(#p29f8879d3a)" d="M 46.0875 368.342533 
L 318.282622 368.342533 
" style="fill:none;stroke:#b0b0b0;stroke-linecap:square;stroke-width:0.8;"/>
     </g>
     <g id="line2d_61">
      <g>
       <use style="stroke:#000000;stroke-width:0.8;" x="46.0875" xlink:href="#m59b43fa4ed" y="368.342533"/>
      </g>
     </g>
     <g id="text_20">
      <!-- 20 -->
      <g transform="translate(29.8625 372.141752)scale(0.1 -0.1)">
       <use xlink:href="#DejaVuSans-50"/>
       <use x="63.623047" xlink:href="#DejaVuSans-48"/>
      </g>
     </g>
    </g>
    <g id="ytick_13">
     <g id="line2d_62">
      <path clip-path="url(#p29f8879d3a)" d="M 46.0875 309.870778 
L 318.282622 309.870778 
" style="fill:none;stroke:#b0b0b0;stroke-linecap:square;stroke-width:0.8;"/>
     </g>
     <g id="line2d_63">
      <g>
       <use style="stroke:#000000;stroke-width:0.8;" x="46.0875" xlink:href="#m59b43fa4ed" y="309.870778"/>
      </g>
     </g>
     <g id="text_21">
      <!-- 30 -->
      <defs>
       <path d="M 40.578125 39.3125 
Q 47.65625 37.796875 51.625 33 
Q 55.609375 28.21875 55.609375 21.1875 
Q 55.609375 10.40625 48.1875 4.484375 
Q 40.765625 -1.421875 27.09375 -1.421875 
Q 22.515625 -1.421875 17.65625 -0.515625 
Q 12.796875 0.390625 7.625 2.203125 
L 7.625 11.71875 
Q 11.71875 9.328125 16.59375 8.109375 
Q 21.484375 6.890625 26.8125 6.890625 
Q 36.078125 6.890625 40.9375 10.546875 
Q 45.796875 14.203125 45.796875 21.1875 
Q 45.796875 27.640625 41.28125 31.265625 
Q 36.765625 34.90625 28.71875 34.90625 
L 20.21875 34.90625 
L 20.21875 43.015625 
L 29.109375 43.015625 
Q 36.375 43.015625 40.234375 45.921875 
Q 44.09375 48.828125 44.09375 54.296875 
Q 44.09375 59.90625 40.109375 62.90625 
Q 36.140625 65.921875 28.71875 65.921875 
Q 24.65625 65.921875 20.015625 65.03125 
Q 15.375 64.15625 9.8125 62.3125 
L 9.8125 71.09375 
Q 15.4375 72.65625 20.34375 73.4375 
Q 25.25 74.21875 29.59375 74.21875 
Q 40.828125 74.21875 47.359375 69.109375 
Q 53.90625 64.015625 53.90625 55.328125 
Q 53.90625 49.265625 50.4375 45.09375 
Q 46.96875 40.921875 40.578125 39.3125 
z
" id="DejaVuSans-51"/>
      </defs>
      <g transform="translate(29.8625 313.669997)scale(0.1 -0.1)">
       <use xlink:href="#DejaVuSans-51"/>
       <use x="63.623047" xlink:href="#DejaVuSans-48"/>
      </g>
     </g>
    </g>
    <g id="text_22">
     <!-- $T / \mathrm{Nm}$ -->
     <defs>
      <path d="M 5.90625 72.90625 
L 67.578125 72.90625 
L 66.015625 64.59375 
L 39.984375 64.59375 
L 27.484375 0 
L 17.578125 0 
L 30.078125 64.59375 
L 4.296875 64.59375 
z
" id="DejaVuSans-Oblique-84"/>
      <path d="M 9.8125 72.90625 
L 23.09375 72.90625 
L 55.421875 11.921875 
L 55.421875 72.90625 
L 64.984375 72.90625 
L 64.984375 0 
L 51.703125 0 
L 19.390625 60.984375 
L 19.390625 0 
L 9.8125 0 
z
" id="DejaVuSans-78"/>
     </defs>
     <g transform="translate(15.403125 440.017511)rotate(-90)scale(0.1 -0.1)">
      <use transform="translate(0 0.09375)" xlink:href="#DejaVuSans-Oblique-84"/>
      <use transform="translate(61.083984 0.09375)" xlink:href="#DejaVuSans-47"/>
      <use transform="translate(94.775391 0.09375)" xlink:href="#DejaVuSans-78"/>
      <use transform="translate(169.580078 0.09375)" xlink:href="#DejaVuSans-109"/>
     </g>
    </g>
   </g>
   <g id="line2d_64">
    <path clip-path="url(#p29f8879d3a)" d="M 46.0875 485.286044 
L 47.720671 485.215974 
L 48.537256 485.007615 
L 49.353841 484.532734 
L 49.898232 484.00027 
L 50.442622 483.245122 
L 51.259207 481.600942 
L 52.075793 479.219437 
L 52.892378 475.974204 
L 53.708963 471.759131 
L 54.525549 466.494594 
L 55.614329 457.765241 
L 56.70311 447.077535 
L 58.064085 431.150104 
L 59.697256 408.980577 
L 65.141159 331.901743 
L 66.229939 320.450202 
L 67.046524 313.588459 
L 67.86311 308.42015 
L 68.4075 305.993257 
L 68.95189 304.424748 
L 69.224085 303.971509 
L 69.49628 303.74276 
L 69.768476 303.740682 
L 70.040671 303.966911 
L 70.312866 304.422523 
L 70.857256 306.023388 
L 71.401646 308.540585 
L 71.946037 311.962314 
L 72.762622 318.742814 
L 73.579207 327.401689 
L 74.667988 341.60269 
L 76.028963 362.950918 
L 77.662134 392.338155 
L 82.561646 483.583471 
L 83.922622 504.463093 
L 85.283598 521.76302 
L 86.372378 532.700764 
L 87.188963 539.121431 
L 88.005549 543.993393 
L 88.822134 547.32937 
L 89.366524 548.718474 
L 89.910915 549.459782 
L 90.18311 549.594341 
L 90.455305 549.575689 
L 90.7275 549.40729 
L 91.27189 548.636335 
L 91.81628 547.313969 
L 92.360671 545.476183 
L 93.177256 541.83953 
L 94.266037 535.574784 
L 95.627012 525.994453 
L 97.804573 508.444191 
L 100.526524 486.811374 
L 101.8875 477.603879 
L 102.97628 471.43758 
L 104.065061 466.492331 
L 104.881646 463.627117 
L 105.698232 461.489199 
L 106.514817 460.059729 
L 107.059207 459.482529 
L 107.603598 459.188723 
L 108.147988 459.160383 
L 108.692378 459.377229 
L 109.236768 459.817069 
L 110.053354 460.842872 
L 110.869939 462.233144 
L 111.95872 464.505681 
L 114.13628 469.755528 
L 116.313841 474.833996 
L 117.674817 477.487025 
L 118.763598 479.207438 
L 119.852378 480.538769 
L 120.941159 481.481611 
L 122.029939 482.059944 
L 123.11872 482.315921 
L 124.2075 482.30444 
L 125.568476 482.009313 
L 127.473841 481.298044 
L 130.467988 480.162426 
L 132.101159 479.809438 
L 133.462134 479.738554 
L 134.82311 479.888292 
L 136.184085 480.253038 
L 137.817256 480.941879 
L 139.722622 482.011998 
L 142.988963 484.175787 
L 146.255305 486.244575 
L 148.432866 487.348134 
L 150.338232 488.063699 
L 152.243598 488.529356 
L 154.148963 488.753774 
L 156.054329 488.763098 
L 158.23189 488.558392 
L 160.953841 488.072247 
L 165.581159 486.968711 
L 171.569451 485.589105 
L 175.924573 484.831649 
L 180.0075 484.342224 
L 184.362622 484.046258 
L 188.717744 483.969061 
L 193.617256 484.115563 
L 199.605549 484.542287 
L 214.03189 485.679771 
L 219.747988 485.847966 
L 226.008476 485.806231 
L 235.535305 485.483175 
L 247.784085 485.10961 
L 257.310915 485.061834 
L 271.737256 485.257218 
L 287.524573 485.392333 
L 308.483598 485.283942 
L 318.010427 485.251116 
L 318.010427 485.251116 
" style="fill:none;stroke:#1f77b4;stroke-linecap:square;stroke-width:1.5;"/>
   </g>
   <g id="patch_8">
    <path d="M 46.0875 561.887024 
L 46.0875 291.447999 
" style="fill:none;stroke:#000000;stroke-linecap:square;stroke-linejoin:miter;"/>
   </g>
   <g id="patch_9">
    <path d="M 318.282622 561.887024 
L 318.282622 291.447999 
" style="fill:none;stroke:#000000;stroke-linecap:square;stroke-linejoin:miter;"/>
   </g>
   <g id="patch_10">
    <path d="M 46.0875 561.887024 
L 318.282622 561.887024 
" style="fill:none;stroke:#000000;stroke-linecap:square;stroke-linejoin:miter;"/>
   </g>
   <g id="patch_11">
    <path d="M 46.0875 291.447999 
L 318.282622 291.447999 
" style="fill:none;stroke:#000000;stroke-linecap:square;stroke-linejoin:miter;"/>
   </g>
  </g>
  <g id="axes_3">
   <g id="patch_12">
    <path d="M 331.892378 277.926048 
L 604.0875 277.926048 
L 604.0875 7.487024 
L 331.892378 7.487024 
z
" style="fill:#ffffff;"/>
   </g>
   <g id="axes_4">
    <g id="patch_13">
     <path d="M 604.0875 277.926048 
L 604.0875 277.926048 
L 604.0875 7.487024 
L 604.0875 7.487024 
z
" style="fill:#ffffff;"/>
    </g>
    <g id="matplotlib.axis_5"/>
    <g id="matplotlib.axis_6">
     <g id="ytick_14">
      <g id="text_23">
       <!-- −300 -->
       <g transform="translate(611.0875 278.213072)scale(0.1 -0.1)">
        <use xlink:href="#DejaVuSans-8722"/>
        <use x="83.789062" xlink:href="#DejaVuSans-51"/>
        <use x="147.412109" xlink:href="#DejaVuSans-48"/>
        <use x="211.035156" xlink:href="#DejaVuSans-48"/>
       </g>
      </g>
     </g>
     <g id="ytick_15">
      <g id="text_24">
       <!-- −200 -->
       <g transform="translate(611.0875 234.310633)scale(0.1 -0.1)">
        <use xlink:href="#DejaVuSans-8722"/>
        <use x="83.789062" xlink:href="#DejaVuSans-50"/>
        <use x="147.412109" xlink:href="#DejaVuSans-48"/>
        <use x="211.035156" xlink:href="#DejaVuSans-48"/>
       </g>
      </g>
     </g>
     <g id="ytick_16">
      <g id="text_25">
       <!-- −100 -->
       <g transform="translate(611.0875 190.408194)scale(0.1 -0.1)">
        <use xlink:href="#DejaVuSans-8722"/>
        <use x="83.789062" xlink:href="#DejaVuSans-49"/>
        <use x="147.412109" xlink:href="#DejaVuSans-48"/>
        <use x="211.035156" xlink:href="#DejaVuSans-48"/>
       </g>
      </g>
     </g>
     <g id="ytick_17">
      <g id="text_26">
       <!-- 0 -->
       <g transform="translate(611.0875 146.505755)scale(0.1 -0.1)">
        <use xlink:href="#DejaVuSans-48"/>
       </g>
      </g>
     </g>
     <g id="ytick_18">
      <g id="text_27">
       <!-- 100 -->
       <g transform="translate(611.0875 102.603316)scale(0.1 -0.1)">
        <use xlink:href="#DejaVuSans-49"/>
        <use x="63.623047" xlink:href="#DejaVuSans-48"/>
        <use x="127.246094" xlink:href="#DejaVuSans-48"/>
       </g>
      </g>
     </g>
     <g id="ytick_19">
      <g id="text_28">
       <!-- 200 -->
       <g transform="translate(611.0875 58.700877)scale(0.1 -0.1)">
        <use xlink:href="#DejaVuSans-50"/>
        <use x="63.623047" xlink:href="#DejaVuSans-48"/>
        <use x="127.246094" xlink:href="#DejaVuSans-48"/>
       </g>
      </g>
     </g>
     <g id="ytick_20">
      <g id="text_29">
       <!-- 300 -->
       <g transform="translate(611.0875 14.798438)scale(0.1 -0.1)">
        <use xlink:href="#DejaVuSans-51"/>
        <use x="63.623047" xlink:href="#DejaVuSans-48"/>
        <use x="127.246094" xlink:href="#DejaVuSans-48"/>
       </g>
      </g>
     </g>
     <g id="text_30">
      <!-- $u / \mathrm{V}$ -->
      <defs>
       <path d="M 6.6875 21.6875 
L 13.09375 54.6875 
L 22.125 54.6875 
L 15.71875 22.015625 
Q 15.234375 19.625 15.015625 17.921875 
Q 14.796875 16.21875 14.796875 15.09375 
Q 14.796875 10.9375 17.328125 8.65625 
Q 19.875 6.390625 24.515625 6.390625 
Q 31.734375 6.390625 37 11.265625 
Q 42.28125 16.15625 43.890625 24.421875 
L 49.90625 54.6875 
L 58.890625 54.6875 
L 48.296875 0 
L 39.3125 0 
L 41.109375 8.59375 
Q 37.3125 3.8125 32.0625 1.1875 
Q 26.8125 -1.421875 20.90625 -1.421875 
Q 13.71875 -1.421875 9.71875 2.515625 
Q 5.71875 6.453125 5.71875 13.484375 
Q 5.71875 14.9375 5.953125 17.140625 
Q 6.203125 19.34375 6.6875 21.6875 
z
" id="DejaVuSans-Oblique-117"/>
       <path d="M 28.609375 0 
L 0.78125 72.90625 
L 11.078125 72.90625 
L 34.1875 11.53125 
L 57.328125 72.90625 
L 67.578125 72.90625 
L 39.796875 0 
z
" id="DejaVuSans-86"/>
      </defs>
      <g transform="translate(650.153125 151.006536)rotate(-90)scale(0.1 -0.1)">
       <use transform="translate(0 0.09375)" xlink:href="#DejaVuSans-Oblique-117"/>
       <use transform="translate(63.378906 0.09375)" xlink:href="#DejaVuSans-47"/>
       <use transform="translate(97.070312 0.09375)" xlink:href="#DejaVuSans-86"/>
      </g>
     </g>
    </g>
    <g id="patch_14">
     <path d="M 604.0875 277.926048 
L 604.0875 7.487024 
" style="fill:none;stroke:#000000;stroke-linecap:square;stroke-linejoin:miter;"/>
    </g>
   </g>
   <g id="matplotlib.axis_7">
    <g id="xtick_13">
     <g id="line2d_65">
      <path clip-path="url(#pf7fde7a5a2)" d="M 331.892378 277.926048 
L 331.892378 7.487024 
" style="fill:none;stroke:#b0b0b0;stroke-linecap:square;stroke-width:0.8;"/>
     </g>
     <g id="line2d_66">
      <g>
       <use style="stroke:#000000;stroke-width:0.8;" x="331.892378" xlink:href="#m8e68c11335" y="277.926048"/>
      </g>
     </g>
     <g id="line2d_67">
      <g>
       <use style="stroke:#000000;stroke-width:0.8;" x="331.892378" xlink:href="#m3319efc6de" y="7.487024"/>
      </g>
     </g>
    </g>
    <g id="xtick_14">
     <g id="line2d_68">
      <path clip-path="url(#pf7fde7a5a2)" d="M 386.331402 277.926048 
L 386.331402 7.487024 
" style="fill:none;stroke:#b0b0b0;stroke-linecap:square;stroke-width:0.8;"/>
     </g>
     <g id="line2d_69">
      <g>
       <use style="stroke:#000000;stroke-width:0.8;" x="386.331402" xlink:href="#m8e68c11335" y="277.926048"/>
      </g>
     </g>
     <g id="line2d_70">
      <g>
       <use style="stroke:#000000;stroke-width:0.8;" x="386.331402" xlink:href="#m3319efc6de" y="7.487024"/>
      </g>
     </g>
    </g>
    <g id="xtick_15">
     <g id="line2d_71">
      <path clip-path="url(#pf7fde7a5a2)" d="M 440.770427 277.926048 
L 440.770427 7.487024 
" style="fill:none;stroke:#b0b0b0;stroke-linecap:square;stroke-width:0.8;"/>
     </g>
     <g id="line2d_72">
      <g>
       <use style="stroke:#000000;stroke-width:0.8;" x="440.770427" xlink:href="#m8e68c11335" y="277.926048"/>
      </g>
     </g>
     <g id="line2d_73">
      <g>
       <use style="stroke:#000000;stroke-width:0.8;" x="440.770427" xlink:href="#m3319efc6de" y="7.487024"/>
      </g>
     </g>
    </g>
    <g id="xtick_16">
     <g id="line2d_74">
      <path clip-path="url(#pf7fde7a5a2)" d="M 495.209451 277.926048 
L 495.209451 7.487024 
" style="fill:none;stroke:#b0b0b0;stroke-linecap:square;stroke-width:0.8;"/>
     </g>
     <g id="line2d_75">
      <g>
       <use style="stroke:#000000;stroke-width:0.8;" x="495.209451" xlink:href="#m8e68c11335" y="277.926048"/>
      </g>
     </g>
     <g id="line2d_76">
      <g>
       <use style="stroke:#000000;stroke-width:0.8;" x="495.209451" xlink:href="#m3319efc6de" y="7.487024"/>
      </g>
     </g>
    </g>
    <g id="xtick_17">
     <g id="line2d_77">
      <path clip-path="url(#pf7fde7a5a2)" d="M 549.648476 277.926048 
L 549.648476 7.487024 
" style="fill:none;stroke:#b0b0b0;stroke-linecap:square;stroke-width:0.8;"/>
     </g>
     <g id="line2d_78">
      <g>
       <use style="stroke:#000000;stroke-width:0.8;" x="549.648476" xlink:href="#m8e68c11335" y="277.926048"/>
      </g>
     </g>
     <g id="line2d_79">
      <g>
       <use style="stroke:#000000;stroke-width:0.8;" x="549.648476" xlink:href="#m3319efc6de" y="7.487024"/>
      </g>
     </g>
    </g>
    <g id="xtick_18">
     <g id="line2d_80">
      <path clip-path="url(#pf7fde7a5a2)" d="M 604.0875 277.926048 
L 604.0875 7.487024 
" style="fill:none;stroke:#b0b0b0;stroke-linecap:square;stroke-width:0.8;"/>
     </g>
     <g id="line2d_81">
      <g>
       <use style="stroke:#000000;stroke-width:0.8;" x="604.0875" xlink:href="#m8e68c11335" y="277.926048"/>
      </g>
     </g>
     <g id="line2d_82">
      <g>
       <use style="stroke:#000000;stroke-width:0.8;" x="604.0875" xlink:href="#m3319efc6de" y="7.487024"/>
      </g>
     </g>
    </g>
   </g>
   <g id="matplotlib.axis_8">
    <g id="ytick_21">
     <g id="line2d_83">
      <path clip-path="url(#pf7fde7a5a2)" d="M 331.892378 274.413853 
L 604.0875 274.413853 
" style="fill:none;stroke:#b0b0b0;stroke-linecap:square;stroke-width:0.8;"/>
     </g>
     <g id="line2d_84">
      <defs>
       <path d="M 0 0 
L -3.5 0 
" id="m23b3dcb416" style="stroke:#000000;stroke-width:0.8;"/>
      </defs>
      <g>
       <use style="stroke:#000000;stroke-width:0.8;" x="604.0875" xlink:href="#m23b3dcb416" y="274.413853"/>
      </g>
     </g>
    </g>
    <g id="ytick_22">
     <g id="line2d_85">
      <path clip-path="url(#pf7fde7a5a2)" d="M 331.892378 230.511414 
L 604.0875 230.511414 
" style="fill:none;stroke:#b0b0b0;stroke-linecap:square;stroke-width:0.8;"/>
     </g>
     <g id="line2d_86">
      <g>
       <use style="stroke:#000000;stroke-width:0.8;" x="604.0875" xlink:href="#m23b3dcb416" y="230.511414"/>
      </g>
     </g>
    </g>
    <g id="ytick_23">
     <g id="line2d_87">
      <path clip-path="url(#pf7fde7a5a2)" d="M 331.892378 186.608975 
L 604.0875 186.608975 
" style="fill:none;stroke:#b0b0b0;stroke-linecap:square;stroke-width:0.8;"/>
     </g>
     <g id="line2d_88">
      <g>
       <use style="stroke:#000000;stroke-width:0.8;" x="604.0875" xlink:href="#m23b3dcb416" y="186.608975"/>
      </g>
     </g>
    </g>
    <g id="ytick_24">
     <g id="line2d_89">
      <path clip-path="url(#pf7fde7a5a2)" d="M 331.892378 142.706536 
L 604.0875 142.706536 
" style="fill:none;stroke:#b0b0b0;stroke-linecap:square;stroke-width:0.8;"/>
     </g>
     <g id="line2d_90">
      <g>
       <use style="stroke:#000000;stroke-width:0.8;" x="604.0875" xlink:href="#m23b3dcb416" y="142.706536"/>
      </g>
     </g>
    </g>
    <g id="ytick_25">
     <g id="line2d_91">
      <path clip-path="url(#pf7fde7a5a2)" d="M 331.892378 98.804097 
L 604.0875 98.804097 
" style="fill:none;stroke:#b0b0b0;stroke-linecap:square;stroke-width:0.8;"/>
     </g>
     <g id="line2d_92">
      <g>
       <use style="stroke:#000000;stroke-width:0.8;" x="604.0875" xlink:href="#m23b3dcb416" y="98.804097"/>
      </g>
     </g>
    </g>
    <g id="ytick_26">
     <g id="line2d_93">
      <path clip-path="url(#pf7fde7a5a2)" d="M 331.892378 54.901658 
L 604.0875 54.901658 
" style="fill:none;stroke:#b0b0b0;stroke-linecap:square;stroke-width:0.8;"/>
     </g>
     <g id="line2d_94">
      <g>
       <use style="stroke:#000000;stroke-width:0.8;" x="604.0875" xlink:href="#m23b3dcb416" y="54.901658"/>
      </g>
     </g>
    </g>
    <g id="ytick_27">
     <g id="line2d_95">
      <path clip-path="url(#pf7fde7a5a2)" d="M 331.892378 10.999219 
L 604.0875 10.999219 
" style="fill:none;stroke:#b0b0b0;stroke-linecap:square;stroke-width:0.8;"/>
     </g>
     <g id="line2d_96">
      <g>
       <use style="stroke:#000000;stroke-width:0.8;" x="604.0875" xlink:href="#m23b3dcb416" y="10.999219"/>
      </g>
     </g>
    </g>
   </g>
   <g id="line2d_97">
    <path clip-path="url(#pf7fde7a5a2)" d="M 331.892378 142.706536 
L 335.430915 93.886405 
L 337.33628 70.451958 
L 338.969451 53.096734 
L 340.330427 41.036143 
L 341.419207 33.177929 
L 342.507988 27.047046 
L 343.324573 23.641679 
L 344.141159 21.29314 
L 344.685549 20.32526 
L 345.229939 19.840364 
L 345.502134 19.779707 
L 345.774329 19.840364 
L 346.31872 20.32526 
L 346.86311 21.29314 
L 347.4075 22.740183 
L 348.224085 25.796174 
L 349.040671 29.88987 
L 350.129451 36.898248 
L 351.218232 45.575286 
L 352.579207 58.557331 
L 354.212378 76.839047 
L 356.117744 101.066557 
L 359.11189 142.706536 
L 362.650427 191.526667 
L 364.555793 214.961113 
L 366.188963 232.316338 
L 367.549939 244.376928 
L 368.63872 252.235143 
L 369.7275 258.366025 
L 370.544085 261.771393 
L 371.360671 264.119932 
L 371.905061 265.087811 
L 372.449451 265.572708 
L 372.721646 265.633365 
L 372.993841 265.572708 
L 373.538232 265.087811 
L 374.082622 264.119932 
L 374.627012 262.672889 
L 375.443598 259.616898 
L 376.260183 255.523202 
L 377.348963 248.514824 
L 378.437744 239.837786 
L 379.79872 226.855741 
L 381.43189 208.574025 
L 383.337256 184.346514 
L 386.331402 142.706536 
L 389.869939 93.886405 
L 391.775305 70.451958 
L 393.408476 53.096734 
L 394.769451 41.036143 
L 395.858232 33.177929 
L 396.947012 27.047046 
L 397.763598 23.641679 
L 398.580183 21.29314 
L 399.124573 20.32526 
L 399.668963 19.840364 
L 399.941159 19.779707 
L 400.213354 19.840364 
L 400.757744 20.32526 
L 401.302134 21.29314 
L 401.846524 22.740183 
L 402.66311 25.796174 
L 403.479695 29.88987 
L 404.568476 36.898248 
L 405.657256 45.575286 
L 407.018232 58.557331 
L 408.651402 76.839047 
L 410.556768 101.066557 
L 413.550915 142.706536 
L 417.089451 191.526667 
L 418.994817 214.961113 
L 420.627988 232.316338 
L 421.988963 244.376928 
L 423.077744 252.235143 
L 424.166524 258.366025 
L 424.98311 261.771393 
L 425.799695 264.119932 
L 426.344085 265.087811 
L 426.888476 265.572708 
L 427.160671 265.633365 
L 427.432866 265.572708 
L 427.977256 265.087811 
L 428.521646 264.119932 
L 429.066037 262.672889 
L 429.882622 259.616898 
L 430.699207 255.523202 
L 431.787988 248.514824 
L 432.876768 239.837786 
L 434.237744 226.855741 
L 435.870915 208.574025 
L 437.77628 184.346514 
L 440.770427 142.706536 
L 444.308963 93.886405 
L 446.214329 70.451958 
L 447.8475 53.096734 
L 449.208476 41.036143 
L 450.297256 33.177929 
L 451.386037 27.047046 
L 452.202622 23.641679 
L 453.019207 21.29314 
L 453.563598 20.32526 
L 454.107988 19.840364 
L 454.380183 19.779707 
L 454.652378 19.840364 
L 455.196768 20.32526 
L 455.741159 21.29314 
L 456.285549 22.740183 
L 457.102134 25.796174 
L 457.91872 29.88987 
L 459.0075 36.898248 
L 460.09628 45.575286 
L 461.457256 58.557331 
L 463.090427 76.839047 
L 464.995793 101.066557 
L 467.989939 142.706536 
L 471.528476 191.526667 
L 473.433841 214.961113 
L 475.067012 232.316338 
L 476.427988 244.376928 
L 477.516768 252.235143 
L 478.605549 258.366025 
L 479.422134 261.771393 
L 480.23872 264.119932 
L 480.78311 265.087811 
L 481.3275 265.572708 
L 481.599695 265.633365 
L 481.87189 265.572708 
L 482.41628 265.087811 
L 482.960671 264.119932 
L 483.505061 262.672889 
L 484.321646 259.616898 
L 485.138232 255.523202 
L 486.227012 248.514824 
L 487.315793 239.837786 
L 488.676768 226.855741 
L 490.309939 208.574025 
L 492.215305 184.346514 
L 495.209451 142.706536 
L 498.747988 93.886405 
L 500.653354 70.451958 
L 502.286524 53.096734 
L 503.6475 41.036143 
L 504.73628 33.177929 
L 505.825061 27.047046 
L 506.641646 23.641679 
L 507.458232 21.29314 
L 508.002622 20.32526 
L 508.547012 19.840364 
L 508.819207 19.779707 
L 509.091402 19.840364 
L 509.635793 20.32526 
L 510.180183 21.29314 
L 510.724573 22.740183 
L 511.541159 25.796174 
L 512.357744 29.88987 
L 513.446524 36.898248 
L 514.535305 45.575286 
L 515.89628 58.557331 
L 517.529451 76.839047 
L 519.434817 101.066557 
L 522.428963 142.706536 
L 525.9675 191.526667 
L 527.872866 214.961113 
L 529.506037 232.316338 
L 530.867012 244.376928 
L 531.955793 252.235143 
L 533.044573 258.366025 
L 533.861159 261.771393 
L 534.677744 264.119932 
L 535.222134 265.087811 
L 535.766524 265.572708 
L 536.03872 265.633365 
L 536.310915 265.572708 
L 536.855305 265.087811 
L 537.399695 264.119932 
L 537.944085 262.672889 
L 538.760671 259.616898 
L 539.577256 255.523202 
L 540.666037 248.514824 
L 541.754817 239.837786 
L 543.115793 226.855741 
L 544.748963 208.574025 
L 546.654329 184.346514 
L 549.648476 142.706536 
L 553.187012 93.886405 
L 555.092378 70.451958 
L 556.725549 53.096734 
L 558.086524 41.036143 
L 559.175305 33.177929 
L 560.264085 27.047046 
L 561.080671 23.641679 
L 561.897256 21.29314 
L 562.441646 20.32526 
L 562.986037 19.840364 
L 563.258232 19.779707 
L 563.530427 19.840364 
L 564.074817 20.32526 
L 564.619207 21.29314 
L 565.163598 22.740183 
L 565.980183 25.796174 
L 566.796768 29.88987 
L 567.885549 36.898248 
L 568.974329 45.575286 
L 570.335305 58.557331 
L 571.968476 76.839047 
L 573.873841 101.066557 
L 576.867988 142.706536 
L 580.406524 191.526667 
L 582.31189 214.961113 
L 583.945061 232.316338 
L 585.306037 244.376928 
L 586.394817 252.235143 
L 587.483598 258.366025 
L 588.300183 261.771393 
L 589.116768 264.119932 
L 589.661159 265.087811 
L 590.205549 265.572708 
L 590.477744 265.633365 
L 590.749939 265.572708 
L 591.294329 265.087811 
L 591.83872 264.119932 
L 592.38311 262.672889 
L 593.199695 259.616898 
L 594.01628 255.523202 
L 595.105061 248.514824 
L 596.193841 239.837786 
L 597.554817 226.855741 
L 599.187988 208.574025 
L 601.093354 184.346514 
L 603.815305 146.567761 
L 603.815305 146.567761 
" style="fill:none;stroke:#1f77b4;stroke-linecap:square;stroke-width:1.5;"/>
   </g>
   <g id="line2d_98">
    <path clip-path="url(#pf7fde7a5a2)" d="M 331.892378 249.164293 
L 332.981159 256.02825 
L 333.797744 260.008274 
L 334.614329 262.947119 
L 335.15872 264.314647 
L 335.70311 265.202243 
L 336.2475 265.606405 
L 336.519695 265.626625 
L 336.79189 265.525537 
L 337.33628 264.959959 
L 337.880671 263.911902 
L 338.425061 262.385503 
L 339.241646 259.212701 
L 340.058232 255.005782 
L 341.147012 247.853752 
L 342.235793 239.043488 
L 343.596768 225.912753 
L 345.229939 207.483541 
L 347.135305 183.13307 
L 350.129451 141.419273 
L 353.667988 92.70769 
L 355.573354 69.414502 
L 357.206524 52.220455 
L 358.5675 40.318169 
L 359.65628 32.599529 
L 360.745061 26.617343 
L 361.561646 23.328078 
L 362.378232 21.098425 
L 362.922622 20.210828 
L 363.467012 19.806666 
L 363.739207 19.786447 
L 364.011402 19.887534 
L 364.555793 20.453113 
L 365.100183 21.501169 
L 365.644573 23.027568 
L 366.461159 26.20037 
L 367.277744 30.407289 
L 368.366524 37.559319 
L 369.455305 46.369584 
L 370.81628 59.500319 
L 372.449451 77.929531 
L 374.354817 102.280002 
L 377.348963 143.993799 
L 380.8875 192.705382 
L 382.792866 215.998569 
L 384.426037 233.192617 
L 385.787012 245.094903 
L 386.875793 252.813542 
L 387.964573 258.795729 
L 388.781159 262.084994 
L 389.597744 264.314647 
L 390.142134 265.202243 
L 390.686524 265.606405 
L 390.95872 265.626625 
L 391.230915 265.525537 
L 391.775305 264.959959 
L 392.319695 263.911902 
L 392.864085 262.385503 
L 393.680671 259.212701 
L 394.497256 255.005782 
L 395.586037 247.853752 
L 396.674817 239.043488 
L 398.035793 225.912753 
L 399.668963 207.483541 
L 401.574329 183.13307 
L 404.568476 141.419273 
L 408.107012 92.70769 
L 410.012378 69.414502 
L 411.645549 52.220455 
L 413.006524 40.318169 
L 414.095305 32.599529 
L 415.184085 26.617343 
L 416.000671 23.328078 
L 416.817256 21.098425 
L 417.361646 20.210828 
L 417.906037 19.806666 
L 418.178232 19.786447 
L 418.450427 19.887534 
L 418.994817 20.453113 
L 419.539207 21.501169 
L 420.083598 23.027568 
L 420.900183 26.20037 
L 421.716768 30.407289 
L 422.805549 37.559319 
L 423.894329 46.369584 
L 425.255305 59.500319 
L 426.888476 77.929531 
L 428.793841 102.280002 
L 431.787988 143.993799 
L 435.326524 192.705382 
L 437.23189 215.998569 
L 438.865061 233.192617 
L 440.226037 245.094903 
L 441.314817 252.813542 
L 442.403598 258.795729 
L 443.220183 262.084994 
L 444.036768 264.314647 
L 444.581159 265.202243 
L 445.125549 265.606405 
L 445.397744 265.626625 
L 445.669939 265.525537 
L 446.214329 264.959959 
L 446.75872 263.911902 
L 447.30311 262.385503 
L 448.119695 259.212701 
L 448.93628 255.005782 
L 450.025061 247.853752 
L 451.113841 239.043488 
L 452.474817 225.912753 
L 454.107988 207.483541 
L 456.013354 183.13307 
L 459.0075 141.419273 
L 462.546037 92.70769 
L 464.451402 69.414502 
L 466.084573 52.220455 
L 467.445549 40.318169 
L 468.534329 32.599529 
L 469.62311 26.617343 
L 470.439695 23.328078 
L 471.25628 21.098425 
L 471.800671 20.210828 
L 472.345061 19.806666 
L 472.617256 19.786447 
L 472.889451 19.887534 
L 473.433841 20.453113 
L 473.978232 21.501169 
L 474.522622 23.027568 
L 475.339207 26.20037 
L 476.155793 30.407289 
L 477.244573 37.559319 
L 478.333354 46.369584 
L 479.694329 59.500319 
L 481.3275 77.929531 
L 483.232866 102.280002 
L 486.227012 143.993799 
L 489.765549 192.705382 
L 491.670915 215.998569 
L 493.304085 233.192617 
L 494.665061 245.094903 
L 495.753841 252.813542 
L 496.842622 258.795729 
L 497.659207 262.084994 
L 498.475793 264.314647 
L 499.020183 265.202243 
L 499.564573 265.606405 
L 499.836768 265.626625 
L 500.108963 265.525537 
L 500.653354 264.959959 
L 501.197744 263.911902 
L 501.742134 262.385503 
L 502.55872 259.212701 
L 503.375305 255.005782 
L 504.464085 247.853752 
L 505.552866 239.043488 
L 506.913841 225.912753 
L 508.547012 207.483541 
L 510.452378 183.13307 
L 513.446524 141.419273 
L 516.985061 92.70769 
L 518.890427 69.414502 
L 520.523598 52.220455 
L 521.884573 40.318169 
L 522.973354 32.599529 
L 524.062134 26.617343 
L 524.87872 23.328078 
L 525.695305 21.098425 
L 526.239695 20.210828 
L 526.784085 19.806666 
L 527.05628 19.786447 
L 527.328476 19.887534 
L 527.872866 20.453113 
L 528.417256 21.501169 
L 528.961646 23.027568 
L 529.778232 26.20037 
L 530.594817 30.407289 
L 531.683598 37.559319 
L 532.772378 46.369584 
L 534.133354 59.500319 
L 535.766524 77.929531 
L 537.67189 102.280002 
L 540.666037 143.993799 
L 544.204573 192.705382 
L 546.109939 215.998569 
L 547.74311 233.192617 
L 549.104085 245.094903 
L 550.192866 252.813542 
L 551.281646 258.795729 
L 552.098232 262.084994 
L 552.914817 264.314647 
L 553.459207 265.202243 
L 554.003598 265.606405 
L 554.275793 265.626625 
L 554.547988 265.525537 
L 555.092378 264.959959 
L 555.636768 263.911902 
L 556.181159 262.385503 
L 556.997744 259.212701 
L 557.814329 255.005782 
L 558.90311 247.853752 
L 559.99189 239.043488 
L 561.352866 225.912753 
L 562.986037 207.483541 
L 564.891402 183.13307 
L 567.885549 141.419273 
L 571.424085 92.70769 
L 573.329451 69.414502 
L 574.962622 52.220455 
L 576.323598 40.318169 
L 577.412378 32.599529 
L 578.501159 26.617343 
L 579.317744 23.328078 
L 580.134329 21.098425 
L 580.67872 20.210828 
L 581.22311 19.806666 
L 581.495305 19.786447 
L 581.7675 19.887534 
L 582.31189 20.453113 
L 582.85628 21.501169 
L 583.400671 23.027568 
L 584.217256 26.20037 
L 585.033841 30.407289 
L 586.122622 37.559319 
L 587.211402 46.369584 
L 588.572378 59.500319 
L 590.205549 77.929531 
L 592.110915 102.280002 
L 595.105061 143.993799 
L 598.643598 192.705382 
L 600.548963 215.998569 
L 602.182134 233.192617 
L 603.54311 245.094903 
L 603.815305 247.18115 
L 603.815305 247.18115 
" style="fill:none;stroke:#ff7f0e;stroke-linecap:square;stroke-width:1.5;"/>
   </g>
   <g id="line2d_99">
    <path clip-path="url(#pf7fde7a5a2)" d="M 331.892378 36.248779 
L 332.981159 44.791639 
L 334.342134 57.62357 
L 335.975305 75.755786 
L 337.880671 99.857679 
L 340.602622 137.558894 
L 344.413354 190.342598 
L 346.31872 213.915734 
L 347.95189 231.430232 
L 349.312866 243.647804 
L 350.401646 251.644732 
L 351.490427 257.923639 
L 352.307012 261.444735 
L 353.123598 263.911902 
L 353.667988 264.959959 
L 354.212378 265.525537 
L 354.484573 265.626625 
L 354.756768 265.606405 
L 355.301159 265.202243 
L 355.845549 264.314647 
L 356.389939 262.947119 
L 357.206524 260.008274 
L 358.02311 256.02825 
L 358.839695 251.042375 
L 359.928476 242.907611 
L 361.017256 233.192617 
L 362.378232 219.062263 
L 364.011402 199.658048 
L 366.188963 170.776984 
L 372.993841 77.929531 
L 374.627012 59.500319 
L 375.987988 46.369584 
L 377.076768 37.559319 
L 378.165549 30.407289 
L 378.982134 26.20037 
L 379.79872 23.027568 
L 380.34311 21.501169 
L 380.8875 20.453113 
L 381.43189 19.887534 
L 381.704085 19.786447 
L 381.97628 19.806666 
L 382.520671 20.210828 
L 383.065061 21.098425 
L 383.609451 22.465953 
L 384.426037 25.404798 
L 385.242622 29.384822 
L 386.059207 34.370697 
L 387.147988 42.50546 
L 388.236768 52.220455 
L 389.597744 66.350809 
L 391.230915 85.755023 
L 393.408476 114.636087 
L 400.213354 207.483541 
L 401.846524 225.912753 
L 403.2075 239.043488 
L 404.29628 247.853752 
L 405.385061 255.005782 
L 406.201646 259.212701 
L 407.018232 262.385503 
L 407.562622 263.911902 
L 408.107012 264.959959 
L 408.651402 265.525537 
L 408.923598 265.626625 
L 409.195793 265.606405 
L 409.740183 265.202243 
L 410.284573 264.314647 
L 410.828963 262.947119 
L 411.645549 260.008274 
L 412.462134 256.02825 
L 413.27872 251.042375 
L 414.3675 242.907611 
L 415.45628 233.192617 
L 416.817256 219.062263 
L 418.450427 199.658048 
L 420.627988 170.776984 
L 427.432866 77.929531 
L 429.066037 59.500319 
L 430.427012 46.369584 
L 431.515793 37.559319 
L 432.604573 30.407289 
L 433.421159 26.20037 
L 434.237744 23.027568 
L 434.782134 21.501169 
L 435.326524 20.453113 
L 435.870915 19.887534 
L 436.14311 19.786447 
L 436.415305 19.806666 
L 436.959695 20.210828 
L 437.504085 21.098425 
L 438.048476 22.465953 
L 438.865061 25.404798 
L 439.681646 29.384822 
L 440.498232 34.370697 
L 441.587012 42.50546 
L 442.675793 52.220455 
L 444.036768 66.350809 
L 445.669939 85.755023 
L 447.8475 114.636087 
L 454.652378 207.483541 
L 456.285549 225.912753 
L 457.646524 239.043488 
L 458.735305 247.853752 
L 459.824085 255.005782 
L 460.640671 259.212701 
L 461.457256 262.385503 
L 462.001646 263.911902 
L 462.546037 264.959959 
L 463.090427 265.525537 
L 463.362622 265.626625 
L 463.634817 265.606405 
L 464.179207 265.202243 
L 464.723598 264.314647 
L 465.267988 262.947119 
L 466.084573 260.008274 
L 466.901159 256.02825 
L 467.717744 251.042375 
L 468.806524 242.907611 
L 469.895305 233.192617 
L 471.25628 219.062263 
L 472.889451 199.658048 
L 475.067012 170.776984 
L 481.87189 77.929531 
L 483.505061 59.500319 
L 484.866037 46.369584 
L 485.954817 37.559319 
L 487.043598 30.407289 
L 487.860183 26.20037 
L 488.676768 23.027568 
L 489.221159 21.501169 
L 489.765549 20.453113 
L 490.309939 19.887534 
L 490.582134 19.786447 
L 490.854329 19.806666 
L 491.39872 20.210828 
L 491.94311 21.098425 
L 492.4875 22.465953 
L 493.304085 25.404798 
L 494.120671 29.384822 
L 494.937256 34.370697 
L 496.026037 42.50546 
L 497.114817 52.220455 
L 498.475793 66.350809 
L 500.108963 85.755023 
L 502.286524 114.636087 
L 509.091402 207.483541 
L 510.724573 225.912753 
L 512.085549 239.043488 
L 513.174329 247.853752 
L 514.26311 255.005782 
L 515.079695 259.212701 
L 515.89628 262.385503 
L 516.440671 263.911902 
L 516.985061 264.959959 
L 517.529451 265.525537 
L 517.801646 265.626625 
L 518.073841 265.606405 
L 518.618232 265.202243 
L 519.162622 264.314647 
L 519.707012 262.947119 
L 520.523598 260.008274 
L 521.340183 256.02825 
L 522.156768 251.042375 
L 523.245549 242.907611 
L 524.334329 233.192617 
L 525.695305 219.062263 
L 527.328476 199.658048 
L 529.506037 170.776984 
L 536.310915 77.929531 
L 537.944085 59.500319 
L 539.305061 46.369584 
L 540.393841 37.559319 
L 541.482622 30.407289 
L 542.299207 26.20037 
L 543.115793 23.027568 
L 543.660183 21.501169 
L 544.204573 20.453113 
L 544.748963 19.887534 
L 545.021159 19.786447 
L 545.293354 19.806666 
L 545.837744 20.210828 
L 546.382134 21.098425 
L 546.926524 22.465953 
L 547.74311 25.404798 
L 548.559695 29.384822 
L 549.37628 34.370697 
L 550.465061 42.50546 
L 551.553841 52.220455 
L 552.914817 66.350809 
L 554.547988 85.755023 
L 556.725549 114.636087 
L 563.530427 207.483541 
L 565.163598 225.912753 
L 566.524573 239.043488 
L 567.613354 247.853752 
L 568.702134 255.005782 
L 569.51872 259.212701 
L 570.335305 262.385503 
L 570.879695 263.911902 
L 571.424085 264.959959 
L 571.968476 265.525537 
L 572.240671 265.626625 
L 572.512866 265.606405 
L 573.057256 265.202243 
L 573.601646 264.314647 
L 574.146037 262.947119 
L 574.962622 260.008274 
L 575.779207 256.02825 
L 576.595793 251.042375 
L 577.684573 242.907611 
L 578.773354 233.192617 
L 580.134329 219.062263 
L 581.7675 199.658048 
L 583.945061 170.776984 
L 590.749939 77.929531 
L 592.38311 59.500319 
L 593.744085 46.369584 
L 594.832866 37.559319 
L 595.921646 30.407289 
L 596.738232 26.20037 
L 597.554817 23.027568 
L 598.099207 21.501169 
L 598.643598 20.453113 
L 599.187988 19.887534 
L 599.460183 19.786447 
L 599.732378 19.806666 
L 600.276768 20.210828 
L 600.821159 21.098425 
L 601.365549 22.465953 
L 602.182134 25.404798 
L 602.99872 29.384822 
L 603.815305 34.370697 
L 603.815305 34.370697 
" style="fill:none;stroke:#2ca02c;stroke-linecap:square;stroke-width:1.5;"/>
   </g>
   <g id="patch_15">
    <path d="M 331.892378 277.926048 
L 331.892378 7.487024 
" style="fill:none;stroke:#000000;stroke-linecap:square;stroke-linejoin:miter;"/>
   </g>
   <g id="patch_16">
    <path d="M 604.0875 277.926048 
L 604.0875 7.487024 
" style="fill:none;stroke:#000000;stroke-linecap:square;stroke-linejoin:miter;"/>
   </g>
   <g id="patch_17">
    <path d="M 331.892378 277.926048 
L 604.0875 277.926048 
" style="fill:none;stroke:#000000;stroke-linecap:square;stroke-linejoin:miter;"/>
   </g>
   <g id="patch_18">
    <path d="M 331.892378 7.487024 
L 604.0875 7.487024 
" style="fill:none;stroke:#000000;stroke-linecap:square;stroke-linejoin:miter;"/>
   </g>
   <g id="legend_1">
    <g id="patch_19">
     <path d="M 446.439939 272.926048 
L 489.539939 272.926048 
Q 491.539939 272.926048 491.539939 270.926048 
L 491.539939 227.891673 
Q 491.539939 225.891673 489.539939 225.891673 
L 446.439939 225.891673 
Q 444.439939 225.891673 444.439939 227.891673 
L 444.439939 270.926048 
Q 444.439939 272.926048 446.439939 272.926048 
z
" style="fill:#ffffff;opacity:0.8;stroke:#cccccc;stroke-linejoin:miter;"/>
    </g>
    <g id="line2d_100">
     <path d="M 448.439939 233.990111 
L 468.439939 233.990111 
" style="fill:none;stroke:#1f77b4;stroke-linecap:square;stroke-width:1.5;"/>
    </g>
    <g id="line2d_101"/>
    <g id="text_31">
     <!-- $u_a$ -->
     <defs>
      <path d="M 53.71875 31.203125 
L 47.609375 0 
L 38.625 0 
L 40.28125 8.296875 
Q 36.328125 3.421875 31.265625 1 
Q 26.21875 -1.421875 20.015625 -1.421875 
Q 13.03125 -1.421875 8.5625 2.84375 
Q 4.109375 7.125 4.109375 13.8125 
Q 4.109375 23.390625 11.75 28.953125 
Q 19.390625 34.515625 32.8125 34.515625 
L 45.3125 34.515625 
L 45.796875 36.921875 
Q 45.90625 37.3125 45.953125 37.765625 
Q 46 38.234375 46 39.203125 
Q 46 43.5625 42.453125 45.96875 
Q 38.921875 48.390625 32.515625 48.390625 
Q 28.125 48.390625 23.5 47.265625 
Q 18.890625 46.140625 14.015625 43.890625 
L 15.578125 52.203125 
Q 20.65625 54.109375 25.515625 55.046875 
Q 30.375 56 34.90625 56 
Q 44.578125 56 49.625 51.796875 
Q 54.6875 47.609375 54.6875 39.59375 
Q 54.6875 37.984375 54.4375 35.8125 
Q 54.203125 33.640625 53.71875 31.203125 
z
M 44 27.484375 
L 35.015625 27.484375 
Q 23.96875 27.484375 18.671875 24.53125 
Q 13.375 21.578125 13.375 15.375 
Q 13.375 11.078125 16.078125 8.640625 
Q 18.796875 6.203125 23.578125 6.203125 
Q 30.90625 6.203125 36.375 11.453125 
Q 41.84375 16.703125 43.609375 25.484375 
z
" id="DejaVuSans-Oblique-97"/>
     </defs>
     <g transform="translate(476.439939 237.490111)scale(0.1 -0.1)">
      <use transform="translate(0 0.3125)" xlink:href="#DejaVuSans-Oblique-117"/>
      <use transform="translate(63.378906 -16.09375)scale(0.7)" xlink:href="#DejaVuSans-Oblique-97"/>
     </g>
    </g>
    <g id="line2d_102">
     <path d="M 448.439939 248.668236 
L 468.439939 248.668236 
" style="fill:none;stroke:#ff7f0e;stroke-linecap:square;stroke-width:1.5;"/>
    </g>
    <g id="line2d_103"/>
    <g id="text_32">
     <!-- $u_b$ -->
     <defs>
      <path d="M 49.515625 33.40625 
Q 49.515625 40.484375 46.265625 44.484375 
Q 43.015625 48.484375 37.3125 48.484375 
Q 33.15625 48.484375 29.515625 46.453125 
Q 25.875 44.4375 23.1875 40.578125 
Q 20.359375 36.53125 18.71875 31.171875 
Q 17.09375 25.828125 17.09375 20.515625 
Q 17.09375 13.765625 20.28125 9.9375 
Q 23.484375 6.109375 29.109375 6.109375 
Q 33.34375 6.109375 36.953125 8.078125 
Q 40.578125 10.0625 43.3125 13.921875 
Q 46.09375 17.921875 47.796875 23.234375 
Q 49.515625 28.5625 49.515625 33.40625 
z
M 21.578125 46.390625 
Q 24.90625 50.875 29.90625 53.4375 
Q 34.90625 56 40.375 56 
Q 48.78125 56 53.734375 50.328125 
Q 58.6875 44.671875 58.6875 35.015625 
Q 58.6875 27.09375 55.78125 19.671875 
Q 52.875 12.25 47.515625 6.5 
Q 44 2.6875 39.40625 0.625 
Q 34.8125 -1.421875 29.78125 -1.421875 
Q 24.46875 -1.421875 20.5625 1.015625 
Q 16.65625 3.46875 14.203125 8.296875 
L 12.59375 0 
L 3.609375 0 
L 18.40625 75.984375 
L 27.390625 75.984375 
z
" id="DejaVuSans-Oblique-98"/>
     </defs>
     <g transform="translate(476.439939 252.168236)scale(0.1 -0.1)">
      <use transform="translate(0 0.3125)" xlink:href="#DejaVuSans-Oblique-117"/>
      <use transform="translate(63.378906 -16.09375)scale(0.7)" xlink:href="#DejaVuSans-Oblique-98"/>
     </g>
    </g>
    <g id="line2d_104">
     <path d="M 448.439939 263.346361 
L 468.439939 263.346361 
" style="fill:none;stroke:#2ca02c;stroke-linecap:square;stroke-width:1.5;"/>
    </g>
    <g id="line2d_105"/>
    <g id="text_33">
     <!-- $u_c$ -->
     <defs>
      <path d="M 53.609375 52.59375 
L 51.8125 43.703125 
Q 48.578125 46.046875 44.9375 47.21875 
Q 41.3125 48.390625 37.40625 48.390625 
Q 33.109375 48.390625 29.21875 46.875 
Q 25.34375 45.359375 22.703125 42.578125 
Q 18.5 38.328125 16.203125 32.609375 
Q 13.921875 26.90625 13.921875 20.796875 
Q 13.921875 13.421875 17.609375 9.8125 
Q 21.296875 6.203125 28.8125 6.203125 
Q 32.515625 6.203125 36.6875 7.328125 
Q 40.875 8.453125 45.40625 10.6875 
L 43.703125 1.8125 
Q 39.796875 0.203125 35.671875 -0.609375 
Q 31.546875 -1.421875 27.203125 -1.421875 
Q 16.3125 -1.421875 10.453125 4.015625 
Q 4.59375 9.46875 4.59375 19.578125 
Q 4.59375 28.078125 7.640625 35.234375 
Q 10.6875 42.390625 16.703125 48.09375 
Q 20.796875 52 26.3125 54 
Q 31.84375 56 38.375 56 
Q 42.1875 56 45.9375 55.140625 
Q 49.703125 54.296875 53.609375 52.59375 
z
" id="DejaVuSans-Oblique-99"/>
     </defs>
     <g transform="translate(476.439939 266.846361)scale(0.1 -0.1)">
      <use transform="translate(0 0.3125)" xlink:href="#DejaVuSans-Oblique-117"/>
      <use transform="translate(63.378906 -16.09375)scale(0.7)" xlink:href="#DejaVuSans-Oblique-99"/>
     </g>
    </g>
   </g>
  </g>
  <g id="axes_5">
   <g id="patch_20">
    <path d="M 331.892378 561.887024 
L 604.0875 561.887024 
L 604.0875 291.447999 
L 331.892378 291.447999 
z
" style="fill:#ffffff;"/>
   </g>
   <g id="axes_6">
    <g id="patch_21">
     <path d="M 604.0875 561.887024 
L 604.0875 561.887024 
L 604.0875 291.447999 
L 604.0875 291.447999 
z
" style="fill:#ffffff;"/>
    </g>
    <g id="matplotlib.axis_9"/>
    <g id="matplotlib.axis_10">
     <g id="ytick_28">
      <g id="text_34">
       <!-- −300 -->
       <g transform="translate(611.0875 562.176214)scale(0.1 -0.1)">
        <use xlink:href="#DejaVuSans-8722"/>
        <use x="83.789062" xlink:href="#DejaVuSans-51"/>
        <use x="147.412109" xlink:href="#DejaVuSans-48"/>
        <use x="211.035156" xlink:href="#DejaVuSans-48"/>
       </g>
      </g>
     </g>
     <g id="ytick_29">
      <g id="text_35">
       <!-- −200 -->
       <g transform="translate(611.0875 518.262941)scale(0.1 -0.1)">
        <use xlink:href="#DejaVuSans-8722"/>
        <use x="83.789062" xlink:href="#DejaVuSans-50"/>
        <use x="147.412109" xlink:href="#DejaVuSans-48"/>
        <use x="211.035156" xlink:href="#DejaVuSans-48"/>
       </g>
      </g>
     </g>
     <g id="ytick_30">
      <g id="text_36">
       <!-- −100 -->
       <g transform="translate(611.0875 474.349668)scale(0.1 -0.1)">
        <use xlink:href="#DejaVuSans-8722"/>
        <use x="83.789062" xlink:href="#DejaVuSans-49"/>
        <use x="147.412109" xlink:href="#DejaVuSans-48"/>
        <use x="211.035156" xlink:href="#DejaVuSans-48"/>
       </g>
      </g>
     </g>
     <g id="ytick_31">
      <g id="text_37">
       <!-- 0 -->
       <g transform="translate(611.0875 430.436394)scale(0.1 -0.1)">
        <use xlink:href="#DejaVuSans-48"/>
       </g>
      </g>
     </g>
     <g id="ytick_32">
      <g id="text_38">
       <!-- 100 -->
       <g transform="translate(611.0875 386.523121)scale(0.1 -0.1)">
        <use xlink:href="#DejaVuSans-49"/>
        <use x="63.623047" xlink:href="#DejaVuSans-48"/>
        <use x="127.246094" xlink:href="#DejaVuSans-48"/>
       </g>
      </g>
     </g>
     <g id="ytick_33">
      <g id="text_39">
       <!-- 200 -->
       <g transform="translate(611.0875 342.609848)scale(0.1 -0.1)">
        <use xlink:href="#DejaVuSans-50"/>
        <use x="63.623047" xlink:href="#DejaVuSans-48"/>
        <use x="127.246094" xlink:href="#DejaVuSans-48"/>
       </g>
      </g>
     </g>
     <g id="ytick_34">
      <g id="text_40">
       <!-- 300 -->
       <g transform="translate(611.0875 298.696574)scale(0.1 -0.1)">
        <use xlink:href="#DejaVuSans-51"/>
        <use x="63.623047" xlink:href="#DejaVuSans-48"/>
        <use x="127.246094" xlink:href="#DejaVuSans-48"/>
       </g>
      </g>
     </g>
     <g id="text_41">
      <!-- $i / \mathrm{A}$ -->
      <defs>
       <path d="M 18.3125 75.984375 
L 27.296875 75.984375 
L 25.09375 64.59375 
L 16.109375 64.59375 
z
M 14.203125 54.6875 
L 23.1875 54.6875 
L 12.5 0 
L 3.515625 0 
z
" id="DejaVuSans-Oblique-105"/>
       <path d="M 34.1875 63.1875 
L 20.796875 26.90625 
L 47.609375 26.90625 
z
M 28.609375 72.90625 
L 39.796875 72.90625 
L 67.578125 0 
L 57.328125 0 
L 50.6875 18.703125 
L 17.828125 18.703125 
L 11.1875 0 
L 0.78125 0 
z
" id="DejaVuSans-65"/>
      </defs>
      <g transform="translate(650.153125 433.167511)rotate(-90)scale(0.1 -0.1)">
       <use transform="translate(0 0.015625)" xlink:href="#DejaVuSans-Oblique-105"/>
       <use transform="translate(27.783203 0.015625)" xlink:href="#DejaVuSans-47"/>
       <use transform="translate(61.474609 0.015625)" xlink:href="#DejaVuSans-65"/>
      </g>
     </g>
    </g>
    <g id="patch_22">
     <path d="M 604.0875 561.887024 
L 604.0875 291.447999 
" style="fill:none;stroke:#000000;stroke-linecap:square;stroke-linejoin:miter;"/>
    </g>
   </g>
   <g id="matplotlib.axis_11">
    <g id="xtick_19">
     <g id="line2d_106">
      <path clip-path="url(#p2b2b6da388)" d="M 331.892378 561.887024 
L 331.892378 291.447999 
" style="fill:none;stroke:#b0b0b0;stroke-linecap:square;stroke-width:0.8;"/>
     </g>
     <g id="line2d_107">
      <g>
       <use style="stroke:#000000;stroke-width:0.8;" x="331.892378" xlink:href="#m8e68c11335" y="561.887024"/>
      </g>
     </g>
     <g id="line2d_108">
      <g>
       <use style="stroke:#000000;stroke-width:0.8;" x="331.892378" xlink:href="#m3319efc6de" y="291.447999"/>
      </g>
     </g>
     <g id="text_42">
      <!-- 0 -->
      <g transform="translate(325.529878 572.985461)scale(0.1 -0.1)">
       <use xlink:href="#DejaVuSans-48"/>
      </g>
     </g>
    </g>
    <g id="xtick_20">
     <g id="line2d_109">
      <path clip-path="url(#p2b2b6da388)" d="M 386.331402 561.887024 
L 386.331402 291.447999 
" style="fill:none;stroke:#b0b0b0;stroke-linecap:square;stroke-width:0.8;"/>
     </g>
     <g id="line2d_110">
      <g>
       <use style="stroke:#000000;stroke-width:0.8;" x="386.331402" xlink:href="#m8e68c11335" y="561.887024"/>
      </g>
     </g>
     <g id="line2d_111">
      <g>
       <use style="stroke:#000000;stroke-width:0.8;" x="386.331402" xlink:href="#m3319efc6de" y="291.447999"/>
      </g>
     </g>
     <g id="text_43">
      <!-- 20 -->
      <g transform="translate(373.606402 572.985461)scale(0.1 -0.1)">
       <use xlink:href="#DejaVuSans-50"/>
       <use x="63.623047" xlink:href="#DejaVuSans-48"/>
      </g>
     </g>
    </g>
    <g id="xtick_21">
     <g id="line2d_112">
      <path clip-path="url(#p2b2b6da388)" d="M 440.770427 561.887024 
L 440.770427 291.447999 
" style="fill:none;stroke:#b0b0b0;stroke-linecap:square;stroke-width:0.8;"/>
     </g>
     <g id="line2d_113">
      <g>
       <use style="stroke:#000000;stroke-width:0.8;" x="440.770427" xlink:href="#m8e68c11335" y="561.887024"/>
      </g>
     </g>
     <g id="line2d_114">
      <g>
       <use style="stroke:#000000;stroke-width:0.8;" x="440.770427" xlink:href="#m3319efc6de" y="291.447999"/>
      </g>
     </g>
     <g id="text_44">
      <!-- 40 -->
      <g transform="translate(428.045427 572.985461)scale(0.1 -0.1)">
       <use xlink:href="#DejaVuSans-52"/>
       <use x="63.623047" xlink:href="#DejaVuSans-48"/>
      </g>
     </g>
    </g>
    <g id="xtick_22">
     <g id="line2d_115">
      <path clip-path="url(#p2b2b6da388)" d="M 495.209451 561.887024 
L 495.209451 291.447999 
" style="fill:none;stroke:#b0b0b0;stroke-linecap:square;stroke-width:0.8;"/>
     </g>
     <g id="line2d_116">
      <g>
       <use style="stroke:#000000;stroke-width:0.8;" x="495.209451" xlink:href="#m8e68c11335" y="561.887024"/>
      </g>
     </g>
     <g id="line2d_117">
      <g>
       <use style="stroke:#000000;stroke-width:0.8;" x="495.209451" xlink:href="#m3319efc6de" y="291.447999"/>
      </g>
     </g>
     <g id="text_45">
      <!-- 60 -->
      <g transform="translate(482.484451 572.985461)scale(0.1 -0.1)">
       <use xlink:href="#DejaVuSans-54"/>
       <use x="63.623047" xlink:href="#DejaVuSans-48"/>
      </g>
     </g>
    </g>
    <g id="xtick_23">
     <g id="line2d_118">
      <path clip-path="url(#p2b2b6da388)" d="M 549.648476 561.887024 
L 549.648476 291.447999 
" style="fill:none;stroke:#b0b0b0;stroke-linecap:square;stroke-width:0.8;"/>
     </g>
     <g id="line2d_119">
      <g>
       <use style="stroke:#000000;stroke-width:0.8;" x="549.648476" xlink:href="#m8e68c11335" y="561.887024"/>
      </g>
     </g>
     <g id="line2d_120">
      <g>
       <use style="stroke:#000000;stroke-width:0.8;" x="549.648476" xlink:href="#m3319efc6de" y="291.447999"/>
      </g>
     </g>
     <g id="text_46">
      <!-- 80 -->
      <g transform="translate(536.923476 572.985461)scale(0.1 -0.1)">
       <use xlink:href="#DejaVuSans-56"/>
       <use x="63.623047" xlink:href="#DejaVuSans-48"/>
      </g>
     </g>
    </g>
    <g id="xtick_24">
     <g id="line2d_121">
      <path clip-path="url(#p2b2b6da388)" d="M 604.0875 561.887024 
L 604.0875 291.447999 
" style="fill:none;stroke:#b0b0b0;stroke-linecap:square;stroke-width:0.8;"/>
     </g>
     <g id="line2d_122">
      <g>
       <use style="stroke:#000000;stroke-width:0.8;" x="604.0875" xlink:href="#m8e68c11335" y="561.887024"/>
      </g>
     </g>
     <g id="line2d_123">
      <g>
       <use style="stroke:#000000;stroke-width:0.8;" x="604.0875" xlink:href="#m3319efc6de" y="291.447999"/>
      </g>
     </g>
     <g id="text_47">
      <!-- 100 -->
      <g transform="translate(585 572.985461)scale(0.1 -0.1)">
       <use xlink:href="#DejaVuSans-49"/>
       <use x="63.623047" xlink:href="#DejaVuSans-48"/>
       <use x="127.246094" xlink:href="#DejaVuSans-48"/>
      </g>
     </g>
    </g>
    <g id="text_48">
     <!-- $t / \mathrm{ms}$ -->
     <g transform="translate(456.839939 586.663586)scale(0.1 -0.1)">
      <use transform="translate(0 0.09375)" xlink:href="#DejaVuSans-Oblique-116"/>
      <use transform="translate(39.208984 0.09375)" xlink:href="#DejaVuSans-47"/>
      <use transform="translate(72.900391 0.09375)" xlink:href="#DejaVuSans-109"/>
      <use transform="translate(170.3125 0.09375)" xlink:href="#DejaVuSans-115"/>
     </g>
    </g>
   </g>
   <g id="matplotlib.axis_12">
    <g id="ytick_35">
     <g id="line2d_124">
      <path clip-path="url(#p2b2b6da388)" d="M 331.892378 558.376995 
L 604.0875 558.376995 
" style="fill:none;stroke:#b0b0b0;stroke-linecap:square;stroke-width:0.8;"/>
     </g>
     <g id="line2d_125">
      <g>
       <use style="stroke:#000000;stroke-width:0.8;" x="604.0875" xlink:href="#m23b3dcb416" y="558.376995"/>
      </g>
     </g>
    </g>
    <g id="ytick_36">
     <g id="line2d_126">
      <path clip-path="url(#p2b2b6da388)" d="M 331.892378 514.463722 
L 604.0875 514.463722 
" style="fill:none;stroke:#b0b0b0;stroke-linecap:square;stroke-width:0.8;"/>
     </g>
     <g id="line2d_127">
      <g>
       <use style="stroke:#000000;stroke-width:0.8;" x="604.0875" xlink:href="#m23b3dcb416" y="514.463722"/>
      </g>
     </g>
    </g>
    <g id="ytick_37">
     <g id="line2d_128">
      <path clip-path="url(#p2b2b6da388)" d="M 331.892378 470.550449 
L 604.0875 470.550449 
" style="fill:none;stroke:#b0b0b0;stroke-linecap:square;stroke-width:0.8;"/>
     </g>
     <g id="line2d_129">
      <g>
       <use style="stroke:#000000;stroke-width:0.8;" x="604.0875" xlink:href="#m23b3dcb416" y="470.550449"/>
      </g>
     </g>
    </g>
    <g id="ytick_38">
     <g id="line2d_130">
      <path clip-path="url(#p2b2b6da388)" d="M 331.892378 426.637175 
L 604.0875 426.637175 
" style="fill:none;stroke:#b0b0b0;stroke-linecap:square;stroke-width:0.8;"/>
     </g>
     <g id="line2d_131">
      <g>
       <use style="stroke:#000000;stroke-width:0.8;" x="604.0875" xlink:href="#m23b3dcb416" y="426.637175"/>
      </g>
     </g>
    </g>
    <g id="ytick_39">
     <g id="line2d_132">
      <path clip-path="url(#p2b2b6da388)" d="M 331.892378 382.723902 
L 604.0875 382.723902 
" style="fill:none;stroke:#b0b0b0;stroke-linecap:square;stroke-width:0.8;"/>
     </g>
     <g id="line2d_133">
      <g>
       <use style="stroke:#000000;stroke-width:0.8;" x="604.0875" xlink:href="#m23b3dcb416" y="382.723902"/>
      </g>
     </g>
    </g>
    <g id="ytick_40">
     <g id="line2d_134">
      <path clip-path="url(#p2b2b6da388)" d="M 331.892378 338.810629 
L 604.0875 338.810629 
" style="fill:none;stroke:#b0b0b0;stroke-linecap:square;stroke-width:0.8;"/>
     </g>
     <g id="line2d_135">
      <g>
       <use style="stroke:#000000;stroke-width:0.8;" x="604.0875" xlink:href="#m23b3dcb416" y="338.810629"/>
      </g>
     </g>
    </g>
    <g id="ytick_41">
     <g id="line2d_136">
      <path clip-path="url(#p2b2b6da388)" d="M 331.892378 294.897356 
L 604.0875 294.897356 
" style="fill:none;stroke:#b0b0b0;stroke-linecap:square;stroke-width:0.8;"/>
     </g>
     <g id="line2d_137">
      <g>
       <use style="stroke:#000000;stroke-width:0.8;" x="604.0875" xlink:href="#m23b3dcb416" y="294.897356"/>
      </g>
     </g>
    </g>
   </g>
   <g id="line2d_138">
    <path clip-path="url(#p2b2b6da388)" d="M 331.892378 426.637175 
L 332.164573 303.740682 
L 332.708963 304.039972 
L 333.253354 304.543952 
L 334.069939 305.68005 
L 334.886524 307.258698 
L 335.975305 310.022271 
L 337.064085 313.497983 
L 338.425061 318.769005 
L 339.786037 324.966121 
L 341.419207 333.439573 
L 343.596768 346.034704 
L 349.585061 381.608156 
L 351.218232 389.698369 
L 352.579207 395.433356 
L 353.667988 399.269562 
L 354.756768 402.392515 
L 355.845549 404.783393 
L 356.662134 406.096745 
L 357.47872 407.007689 
L 358.295305 407.530809 
L 358.839695 407.673882 
L 359.384085 407.660795 
L 360.200671 407.366686 
L 361.017256 406.771533 
L 361.833841 405.910641 
L 362.922622 404.416054 
L 364.283598 402.127583 
L 366.733354 397.423052 
L 369.18311 392.883886 
L 370.544085 390.770632 
L 371.632866 389.392991 
L 372.721646 388.339944 
L 373.810427 387.640089 
L 374.627012 387.356849 
L 375.443598 387.283348 
L 376.260183 387.41794 
L 377.076768 387.755538 
L 378.165549 388.506732 
L 379.254329 389.576266 
L 380.615305 391.306255 
L 382.248476 393.847638 
L 384.426037 397.756808 
L 389.597744 407.302429 
L 391.50311 410.297209 
L 393.13628 412.499235 
L 394.769451 414.347754 
L 396.402622 415.858463 
L 398.035793 417.06887 
L 399.941159 418.168795 
L 401.846524 419.014315 
L 404.29628 419.851945 
L 407.562622 420.718291 
L 411.373354 421.508945 
L 414.639695 421.979772 
L 417.633841 422.182152 
L 420.355793 422.146191 
L 423.349939 421.874192 
L 426.888476 421.313177 
L 437.77628 419.40815 
L 441.314817 419.11048 
L 444.853354 419.034357 
L 448.93628 419.184674 
L 454.107988 419.624684 
L 470.439695 421.197998 
L 476.155793 421.434329 
L 482.144085 421.454846 
L 489.765549 421.239662 
L 507.186037 420.669239 
L 516.168476 420.656713 
L 533.316768 420.928901 
L 547.19872 421.013569 
L 603.815305 420.919363 
L 603.815305 420.919363 
" style="fill:none;stroke:#1f77b4;stroke-linecap:square;stroke-width:1.5;"/>
   </g>
   <g id="line2d_139">
    <path clip-path="url(#p2b2b6da388)" d="M 331.892378 549.594341 
L 332.164573 422.774998 
L 333.253354 412.086942 
L 335.975305 387.657326 
L 338.425061 367.620887 
L 340.330427 353.663746 
L 342.235793 341.397567 
L 343.868963 332.381816 
L 345.229939 325.986138 
L 346.590915 320.617315 
L 347.95189 316.246409 
L 349.040671 313.424383 
L 350.129451 311.148953 
L 351.218232 309.359773 
L 352.307012 307.99019 
L 353.395793 306.971892 
L 354.484573 306.239477 
L 355.845549 305.637685 
L 357.206524 305.299283 
L 358.839695 305.151135 
L 360.472866 305.22604 
L 362.378232 305.56178 
L 364.283598 306.147573 
L 366.461159 307.071834 
L 371.905061 309.550578 
L 373.538232 309.981048 
L 374.899207 310.139265 
L 376.260183 310.102562 
L 377.893354 309.813397 
L 379.526524 309.299778 
L 381.97628 308.258886 
L 386.875793 306.090741 
L 389.325549 305.284056 
L 391.775305 304.718733 
L 394.497256 304.324558 
L 398.035793 304.05287 
L 403.75189 303.876774 
L 416.545061 303.762389 
L 432.060183 303.842961 
L 449.480671 303.90391 
L 497.387012 303.812398 
L 560.53628 303.812255 
L 603.815305 303.813028 
L 603.815305 303.813028 
" style="fill:none;stroke:#ff7f0e;stroke-linecap:square;stroke-width:1.5;"/>
   </g>
   <g id="patch_23">
    <path d="M 331.892378 561.887024 
L 331.892378 291.447999 
" style="fill:none;stroke:#000000;stroke-linecap:square;stroke-linejoin:miter;"/>
   </g>
   <g id="patch_24">
    <path d="M 604.0875 561.887024 
L 604.0875 291.447999 
" style="fill:none;stroke:#000000;stroke-linecap:square;stroke-linejoin:miter;"/>
   </g>
   <g id="patch_25">
    <path d="M 331.892378 561.887024 
L 604.0875 561.887024 
" style="fill:none;stroke:#000000;stroke-linecap:square;stroke-linejoin:miter;"/>
   </g>
   <g id="patch_26">
    <path d="M 331.892378 291.447999 
L 604.0875 291.447999 
" style="fill:none;stroke:#000000;stroke-linecap:square;stroke-linejoin:miter;"/>
   </g>
   <g id="legend_2">
    <g id="patch_27">
     <path d="M 557.5875 556.887024 
L 597.0875 556.887024 
Q 599.0875 556.887024 599.0875 554.887024 
L 599.0875 525.508899 
Q 599.0875 523.508899 597.0875 523.508899 
L 557.5875 523.508899 
Q 555.5875 523.508899 555.5875 525.508899 
L 555.5875 554.887024 
Q 555.5875 556.887024 557.5875 556.887024 
z
" style="fill:#ffffff;opacity:0.8;stroke:#cccccc;stroke-linejoin:miter;"/>
    </g>
    <g id="line2d_140">
     <path d="M 559.5875 531.607336 
L 579.5875 531.607336 
" style="fill:none;stroke:#1f77b4;stroke-linecap:square;stroke-width:1.5;"/>
    </g>
    <g id="line2d_141"/>
    <g id="text_49">
     <!-- $i_d$ -->
     <defs>
      <path d="M 41.796875 8.203125 
Q 38.1875 3.46875 33.25 1.015625 
Q 28.328125 -1.421875 22.3125 -1.421875 
Q 14.109375 -1.421875 9.34375 4.171875 
Q 4.59375 9.765625 4.59375 19.484375 
Q 4.59375 27.59375 7.46875 34.9375 
Q 10.359375 42.28125 15.828125 48.09375 
Q 19.4375 51.953125 23.96875 53.96875 
Q 28.515625 56 33.5 56 
Q 38.765625 56 42.796875 53.453125 
Q 46.828125 50.921875 49.03125 46.1875 
L 54.890625 75.984375 
L 63.921875 75.984375 
L 49.125 0 
L 40.09375 0 
z
M 13.921875 21.09375 
Q 13.921875 14.015625 17.109375 10.0625 
Q 20.3125 6.109375 25.984375 6.109375 
Q 30.171875 6.109375 33.765625 8.125 
Q 37.359375 10.15625 40.09375 14.109375 
Q 42.96875 18.21875 44.625 23.578125 
Q 46.296875 28.953125 46.296875 34.1875 
Q 46.296875 40.96875 43.09375 44.765625 
Q 39.890625 48.578125 34.28125 48.578125 
Q 30.03125 48.578125 26.359375 46.578125 
Q 22.703125 44.578125 20.125 40.828125 
Q 17.28125 36.765625 15.59375 31.390625 
Q 13.921875 26.03125 13.921875 21.09375 
z
" id="DejaVuSans-Oblique-100"/>
     </defs>
     <g transform="translate(587.5875 535.107336)scale(0.1 -0.1)">
      <use transform="translate(0 0.015625)" xlink:href="#DejaVuSans-Oblique-105"/>
      <use transform="translate(27.783203 -16.390625)scale(0.7)" xlink:href="#DejaVuSans-Oblique-100"/>
     </g>
    </g>
    <g id="line2d_142">
     <path d="M 559.5875 546.287024 
L 579.5875 546.287024 
" style="fill:none;stroke:#ff7f0e;stroke-linecap:square;stroke-width:1.5;"/>
    </g>
    <g id="line2d_143"/>
    <g id="text_50">
     <!-- $i_q$ -->
     <defs>
      <path d="M 41.703125 8.203125 
Q 38.09375 3.46875 33.171875 1.015625 
Q 28.265625 -1.421875 22.3125 -1.421875 
Q 14.015625 -1.421875 9.296875 4.171875 
Q 4.59375 9.765625 4.59375 19.578125 
Q 4.59375 27.484375 7.5 34.859375 
Q 10.40625 42.234375 15.828125 48.09375 
Q 19.34375 51.90625 23.90625 53.953125 
Q 28.46875 56 33.5 56 
Q 39.546875 56 43.453125 53.609375 
Q 47.359375 51.21875 49.125 46.390625 
L 50.6875 54.59375 
L 59.71875 54.59375 
L 45.125 -20.609375 
L 36.078125 -20.609375 
z
M 13.921875 20.90625 
Q 13.921875 13.671875 16.9375 9.890625 
Q 19.96875 6.109375 25.6875 6.109375 
Q 34.1875 6.109375 40.1875 14.234375 
Q 46.1875 22.359375 46.1875 33.984375 
Q 46.1875 41.015625 43.078125 44.75 
Q 39.984375 48.484375 34.1875 48.484375 
Q 29.9375 48.484375 26.3125 46.5 
Q 22.703125 44.53125 20.015625 40.71875 
Q 17.1875 36.71875 15.546875 31.34375 
Q 13.921875 25.984375 13.921875 20.90625 
z
" id="DejaVuSans-Oblique-113"/>
     </defs>
     <g transform="translate(587.5875 549.787024)scale(0.1 -0.1)">
      <use transform="translate(0 0.015625)" xlink:href="#DejaVuSans-Oblique-105"/>
      <use transform="translate(27.783203 -16.390625)scale(0.7)" xlink:href="#DejaVuSans-Oblique-113"/>
     </g>
    </g>
   </g>
  </g>
 </g>
 <defs>
  <clipPath id="p30e9154b1b">
   <rect height="270.439024" width="272.195122" x="46.0875" y="7.487024"/>
  </clipPath>
  <clipPath id="p29f8879d3a">
   <rect height="270.439024" width="272.195122" x="46.0875" y="291.447999"/>
  </clipPath>
  <clipPath id="pf7fde7a5a2">
   <rect height="270.439024" width="272.195122" x="331.892378" y="7.487024"/>
  </clipPath>
  <clipPath id="p2b2b6da388">
   <rect height="270.439024" width="272.195122" x="331.892378" y="291.447999"/>
  </clipPath>
 </defs>
</svg>
